<svg width="375" height="400" viewBox="0 0 375 400" fill="none" xmlns="http://www.w3.org/2000/svg">
<g clip-path="url(#clip0_96_2627)">
<rect width="375" height="400" fill="#F95A2C"/>
<g clip-path="url(#clip1_96_2627)">
<path fill-rule="evenodd" clip-rule="evenodd" d="M179.051 384.228C178.463 378.759 178.1 373.252 177.892 367.755C177.684 362.265 177.956 356.707 178.075 351.215C178.319 340.043 178.714 328.844 177.825 317.688C176.985 307.145 175.056 296.676 172.011 286.546C170.529 281.612 168.966 276.48 166.528 271.922C164.076 267.339 160.193 264.287 155.927 261.488C151.385 258.508 146.879 255.471 142.355 252.464C138.558 249.939 131.723 247.001 128.607 243.626C125.329 240.074 124.712 231.271 122.529 227.064C120.403 222.966 114.383 220.293 109.749 220.293C102.077 220.293 96.2646 219.901 89.9566 227C86.8094 230.542 89.3135 234.123 86.0147 237.523C82.9817 240.649 75.2254 243.861 71.3163 245.674C66.6344 247.847 61.8344 249.764 56.9648 251.473C51.9973 253.215 46.9047 254.514 41.9094 256.159C37.1212 257.736 30.869 264.234 27.1518 267.672C23.696 270.869 22.8383 270.511 20.2111 274.394C14.4452 282.916 8.67291 291.537 4.08131 300.764C1.79425 305.36 -0.420269 310.195 -1.25008 315.3C-2.1352 320.744 -1.2576 326.006 0.177823 331.277C1.63896 336.642 6.27884 341.749 7.79045 347.1C8.48705 349.566 6.0959 352.257 7.19576 354.581C7.74508 355.741 8.43683 356.775 9.22442 357.786C9.83124 358.565 12.1977 358.392 12.5039 359.346C12.8133 360.309 11.1012 362.308 11.0757 363.305C11.0396 364.731 10.9828 366.158 10.936 367.584L10.6594 376.018C10.4776 381.56 10.2959 387.102 10.1142 392.644C10.0547 394.453 9.96809 396.221 10.4017 397.937C10.2452 397.792 10.0964 397.634 9.96057 397.457C9.56289 396.937 8.7195 397.378 9.057 397.985C9.6204 398.999 10.4305 399.713 11.3824 400.225C12.4886 401.857 180.009 405.5 180.833 400.731C181.295 398.055 180.454 395.19 180.117 392.531C179.767 389.762 179.35 387.004 179.051 384.228Z" fill="white"/>
<path fill-rule="evenodd" clip-rule="evenodd" d="M8.88339 315.309C9.2932 314.135 11.1678 314.643 10.7551 315.825C8.63348 321.905 10.1385 328.52 12.4321 334.324C12.8924 335.488 11.0144 335.988 10.5605 334.84C8.14773 328.735 6.65505 321.694 8.88339 315.309ZM23.1096 350.034C29.0929 350.876 35.0811 351.396 41.1057 351.815C41.375 351.835 41.608 351.794 41.8093 351.706C41.6298 354.466 41.4842 357.228 41.3702 359.991C39.7275 359.945 38.0509 360.054 36.4229 360.01C34.295 359.952 32.1695 359.845 30.0465 359.683C25.9362 359.372 21.8333 358.876 17.7692 358.192C16.2503 357.937 14.3214 357.782 12.5914 357.277C10.956 356.799 9.50024 356.007 8.73595 354.517C8.08569 353.255 7.9668 351.709 7.9668 350.313C7.9668 349.352 8.13179 348.376 8.23127 347.408C8.35501 347.32 8.46662 347.216 8.5564 347.1C10.3616 347.67 12.2347 348.07 14.069 348.459C17.0559 349.095 20.0863 349.609 23.1096 350.034ZM19.7351 327.591C19.7681 329.446 20.2812 331.132 21.2797 332.694C21.9552 333.751 20.2744 334.723 19.6036 333.674C18.4282 331.835 17.8328 329.77 17.794 327.591C17.7717 326.339 19.7127 326.343 19.7351 327.591ZM173.11 347.83C173.92 347.875 174.735 347.903 175.548 347.946C176.264 348.559 177.257 348.874 178.163 348.679C178.194 348.757 178.223 348.845 178.249 348.946C178.409 349.57 178.489 350.24 178.581 350.876C178.673 351.502 178.744 352.134 178.792 352.765C178.816 353.083 178.969 353.801 178.775 354.078C178.601 354.328 178.215 354.306 177.948 354.337C177.23 354.415 176.502 354.452 175.779 354.512C174.413 354.631 173.047 354.75 171.683 354.869C170.346 354.986 168.878 354.949 167.57 355.301C167.347 352.677 167.143 350.054 166.954 347.427C168.98 347.726 171.098 347.718 173.11 347.83ZM3.23715 343.478C4.0524 345.054 4.80457 346.602 6.3647 347.549C6.56851 347.67 6.79659 347.736 7.02952 347.753C6.85482 348.503 6.74563 349.27 6.64858 349.978C6.43506 351.539 6.38896 353.153 6.7796 354.692C7.16054 356.19 7.79139 357.528 9.02882 358.486C9.60386 358.933 10.2323 359.273 10.8922 359.542C10.7806 359.855 10.7151 360.166 10.7491 360.508C10.5914 361.302 10.487 362.11 10.373 362.884C10.1231 364.603 9.87318 366.324 9.67665 368.052C9.28358 371.489 8.97544 374.926 8.71582 378.375C8.4562 381.815 8.26937 385.259 8.11409 388.706C8.03402 390.468 7.96366 392.23 7.89814 393.995C7.83263 395.808 7.53905 397.663 8.33974 399.345C8.98514 400.704 11.1664 400.626 11.8361 399.345C12.6853 397.716 12.4354 395.781 12.4572 393.995C12.4791 392.313 12.5082 390.628 12.5446 388.946C12.6174 385.502 12.7241 382.06 12.809 378.616C12.8915 375.254 12.9935 371.894 13.0614 368.533C13.0954 366.773 13.0978 365.013 13.1075 363.253C13.1123 362.278 13.1536 361.236 13.0808 360.219C13.6874 360.362 14.2988 360.484 14.903 360.608C19.5154 361.554 24.1764 362.244 28.8665 362.671C31.2225 362.884 33.5858 363.035 35.949 363.12C37.6863 363.183 39.4866 363.304 41.2506 363.239C41.1123 367.453 41.0492 371.669 41.0565 375.885C41.0613 378.926 41.1026 381.968 41.1778 385.009C41.219 386.609 41.253 388.208 41.3015 389.808C41.3234 390.527 41.3234 391.252 41.3719 391.968C41.3864 392.191 41.418 392.408 41.4592 392.621C41.2991 393.075 41.1656 393.524 41.0565 393.944C40.5227 395.983 40.5227 397.942 40.7604 400.019C40.9643 401.782 42.4467 403.415 44.4048 402.796C44.7227 402.697 45.0405 402.592 45.3559 402.486C48.2384 402.813 51.1379 402.889 54.0616 402.944C58.3344 403.027 62.6096 403.054 66.8848 403.075C75.2702 403.119 83.6581 403.141 92.0459 403.165C108.902 403.214 125.757 403.26 142.613 403.308C147.291 403.323 151.969 403.335 156.647 403.35C159.069 403.357 161.485 403.359 163.904 403.452C165.033 403.496 166.163 403.556 167.291 403.573C168.599 403.595 169.757 403.219 171.006 402.877C171.712 402.68 171.991 401.971 171.841 401.372C172.972 401.641 174.342 401.068 174.728 399.794C175.01 398.869 174.905 397.866 174.486 397.01V397.007C173.675 391.888 172.646 386.793 171.838 381.672C170.953 376.062 170.101 370.441 169.351 364.809C168.788 360.557 168.325 363.571 167.925 359.299C169.669 359.435 171.642 358.904 173.369 358.678C174.609 358.518 175.859 358.389 177.101 358.219C177.009 359.472 177.036 360.748 177.002 361.95C176.936 364.336 176.965 366.712 177.026 369.098C177.142 373.703 177.402 371.023 177.817 375.608C178.237 380.227 178.751 384.829 179.375 389.427C179.695 391.794 180.037 394.158 180.399 396.519C180.566 397.621 180.738 398.721 180.915 399.823C181.126 401.121 181.194 402.352 182.167 403.328C182.907 404.068 184.419 404.005 184.909 402.973C185.53 401.67 185.249 400.553 185.018 399.185C184.831 398.085 184.652 396.985 184.475 395.886C184.096 393.529 183.737 391.17 183.4 388.808C182.75 384.257 182.136 379.698 181.587 375.135C181.034 370.535 180.462 373.222 179.918 368.623C179.644 366.302 179.37 363.986 179.049 361.673C178.887 360.484 178.785 359.217 178.571 357.991C178.639 357.981 178.707 357.969 178.775 357.957C180.251 357.688 181.51 356.855 181.881 355.335C182.235 353.882 181.813 352.209 181.515 350.782C181.26 349.567 181.03 348.015 180.247 346.973C183.004 343.461 184.797 339.041 185.94 334.792C187.186 330.163 187.707 325.331 187.818 320.548C187.946 315.006 187.528 309.496 186.579 304.077C186.556 302.929 186.503 301.781 186.418 300.634C185.584 289.382 182.08 276.063 170.972 270.805C170.929 270.784 170.882 270.764 170.836 270.745C169.965 269.703 168.878 268.766 168 267.89C166.445 266.337 164.819 264.851 163.096 263.482C159.685 260.771 155.943 258.606 152.054 256.657C148.121 254.683 144.13 252.831 140.286 250.678C136.938 248.8 133.924 246.537 131.064 243.984C127.849 241.112 125.561 237.241 124.663 233.015C124.617 232.794 124.289 232.855 124.285 233.066C124.049 240.811 129.276 247.656 135.29 251.987C142.482 257.159 151.166 259.608 158.46 264.623C160.272 265.868 161.968 267.274 163.582 268.766C161.109 268.514 158.593 268.674 156.276 269.359C155.364 269.303 154.446 269.286 153.532 269.242C151.44 269.138 149.346 269.041 147.252 268.948C142.984 268.759 138.714 268.587 134.444 268.436C126.066 268.14 117.685 267.917 109.304 267.769C92.4632 267.47 75.6002 267.412 58.7614 267.9C54.1951 268.031 30.184 267.121 27.9615 267.378C31.2298 264.548 34.8159 262.237 38.7587 260.336C43.6915 257.965 48.7892 256.382 54.0568 254.936C64.9049 251.957 76.1704 249.086 84.8518 241.52C87.0088 239.639 88.9257 237.476 90.4955 235.081C91.995 232.794 93.6619 229.867 93.7031 227.078C93.7322 225.097 90.9759 224.376 89.9957 226.073C89.3867 227.124 89.0858 228.277 88.5884 229.379C88.0934 230.471 87.5062 231.525 86.8536 232.532C85.57 234.513 83.9783 236.28 82.2459 237.874C78.5531 241.277 74.0789 243.77 69.4494 245.656C58.9386 249.935 47.4426 251.741 37.4825 257.383C33.1248 259.851 28.9539 263.257 26.3359 267.601C25.9137 267.667 25.4939 267.744 25.0742 267.832C25.3872 267.436 25.7026 267.041 26.0205 266.647C26.2291 266.39 25.9064 266.05 25.6516 266.278C20.6995 270.686 16.138 275.446 12.0035 280.636C8.04858 285.602 4.36055 290.806 1.74981 296.622C-2.94273 307.069 -3.97635 319.018 -1.55244 330.189C-0.892473 333.233 0.0392406 336.213 1.22572 339.095C1.83716 340.582 2.49955 342.049 3.23715 343.478Z" fill="black"/>
<path fill-rule="evenodd" clip-rule="evenodd" d="M110.146 125.598C123.923 125.598 141.178 141.32 146.228 148.01C150.474 153.635 149.874 182.612 149.874 199.801C149.874 203.396 148.249 210.2 147.659 213.639C145.499 226.24 136.084 236.808 117.45 236.808C102.277 236.808 90.6013 232.001 79.3102 219.704C76.7343 216.899 64.1541 226.942 61.5813 223.325C54.8611 223.325 49.242 160.513 62.4361 141.672C75.6302 122.832 96.3695 125.598 110.146 125.598Z" fill="white"/>
<path fill-rule="evenodd" clip-rule="evenodd" d="M68.7397 130.022C76.7005 122.776 87.306 119.291 98.0062 119.548C103.548 119.682 109.07 120.737 114.304 122.546C116.922 123.454 119.457 124.638 121.881 125.978C122.755 126.46 123.56 127.024 124.335 127.624L124.528 127.774H124.531C126.61 128.522 128.466 129.864 130.15 131.434C133.525 131.165 136.927 131.468 140.19 132.51C144.733 133.961 148.937 136.619 151.89 140.394C155.33 144.788 156.473 150.118 156.065 155.62L155.99 156.555C155.586 161.415 154.864 167.667 150.876 170.861C150.573 171.104 150.238 171.288 149.891 171.4C152.46 175.803 154.569 180.691 155.831 185.628C160.647 204.486 156.944 224.152 151.153 242.327C150.677 243.825 148.413 244.82 147.261 243.357C145.203 240.74 142.214 238.745 138.851 238.371C136.777 238.14 134.712 238.558 132.751 237.616C131.982 237.245 131.24 236.638 130.706 235.9C127.396 237.155 123.832 237.747 120.297 237.602C114.496 237.364 108.294 235.354 104.303 230.946C103.662 230.238 103.5 229.444 103.647 228.728C104.148 228.549 104.662 228.416 105.191 228.333C110.252 231.317 115.831 233.311 121.827 233.436C125.292 233.509 128.671 233.024 131.481 230.86C132.088 230.391 132.647 229.873 133.164 229.315C139.038 225.535 143.179 219.116 145.147 212.239C146.982 205.826 146.756 199.148 146.125 192.571L145.792 189.099C145.307 184.005 144.857 178.895 144.731 173.778L144.769 173.777C146.01 173.696 146.018 171.754 144.769 171.835C141.538 172.044 138.33 171.514 135.109 171.745C135.082 170.221 134.972 168.704 134.524 167.235C134.269 166.395 132.808 166.23 132.653 167.235C132.446 168.579 132.37 169.917 132.347 171.267C127.526 171.203 122.709 170.798 117.887 170.964C116.998 170.015 116.714 168.332 116.298 167.162C116.238 166.989 116.177 166.819 116.114 166.647C115.748 168.32 115.23 169.956 114.548 171.558L113.366 171.562C106.656 171.593 99.809 171.794 93.2568 173.188C92.8014 172.838 92.5304 172.228 92.4571 171.674C91.9819 168.068 91.3035 164.558 90.1014 161.122L89.9294 160.637C89.9153 160.597 89.9005 160.554 89.885 160.509C88.9991 161.939 87.9422 163.273 86.7895 164.514C86.1101 165.246 85.3977 165.946 84.6666 166.626C83.9565 167.415 83.2225 168.192 82.5111 168.983C82.539 169.127 82.5633 169.273 82.5829 169.422C82.8006 171.064 82.8231 172.729 82.6637 174.378C82.3755 177.358 81.5345 180.229 80.1835 182.885L80.1408 183.151C79.9356 184.396 79.6437 185.683 78.9621 186.62C79.8128 187.574 80.4681 188.713 80.8481 189.978C81.1863 191.104 79.6284 192.081 78.8204 191.159C78.1786 190.426 77.4655 189.82 76.6823 189.337C76.6328 189.404 76.5435 189.437 76.4433 189.381C74.262 188.17 70.557 188.536 68.3782 189.677C65.668 191.095 64.6101 194.005 64.9109 196.954C65.1997 199.772 66.4322 203.066 68.8222 204.51C69.9189 205.173 70.773 205.229 71.9376 204.911C72.31 204.81 72.7716 204.499 72.9698 204.345L73.1648 204.189C73.9283 203.585 74.6394 203.172 75.5407 203.156C76.4625 202.868 77.389 203.267 77.7415 204.234L77.7632 204.297C77.9282 204.789 78.2291 205.408 78.1636 206.161C78.0956 206.967 77.7268 207.7 77.1761 208.29C77.0814 208.392 76.9795 208.494 76.8752 208.588C86.3622 218.863 87.5802 234.873 82.7154 247.709C82.5043 248.272 82.2786 248.828 82.0433 249.379C81.2305 251.267 78.1005 250.682 77.7026 248.811C77.5837 248.25 77.4527 247.692 77.3095 247.138C77.0464 246.116 76.7449 245.103 76.4051 244.104L76.2759 243.73C75.9872 242.905 75.7178 242.073 75.4267 241.247L75.3976 241.153C75.3866 241.116 75.3745 241.073 75.3612 241.024L74.8686 242.099L73.3716 245.345C72.671 246.859 70.4452 246.036 70.3625 244.577L70.3605 244.527C70.3532 244.257 70.3435 243.99 70.3265 243.726C70.2198 241.742 69.8776 239.815 69.3341 237.929L69.1381 238.173C66.2182 241.784 62.7914 245.169 58.0905 246.002C56.9113 246.211 55.5768 244.978 56.3872 243.786C56.7221 243.294 57.0448 242.789 57.3505 242.276C57.086 242.153 56.8361 242.024 56.6056 241.893C54.8222 240.891 53.3373 239.463 52.1096 237.844C49.5061 234.412 48.5744 230.092 48.3463 225.863C48.1037 221.395 48.4968 216.683 49.7172 212.372C50.2462 210.508 50.9619 208.719 51.7893 206.984C51.7311 206.828 51.6753 206.673 51.6195 206.518C50.7266 204.027 49.9938 201.481 49.3848 198.906C48.1571 193.706 47.4971 188.342 47.4171 183C47.2715 173.429 48.9214 163.705 52.3983 154.78C55.9893 145.576 61.3903 136.709 68.7397 130.022ZM64.2679 213.7C63.6085 212.661 61.9586 213.597 62.5709 214.643L62.5937 214.681C63.6395 216.329 64.1296 218.203 64.7313 220.04C65.1171 221.222 66.9927 220.717 66.602 219.523L66.4727 219.124C65.8739 217.261 65.3277 215.367 64.2679 213.7ZM70.0108 193.873L70.4489 193.661C71.8308 193.002 73.0416 192.552 74.6743 193.128C76.8604 193.898 79.2018 196.347 77.7242 198.723C77.1807 199.599 76.215 199.949 75.2202 199.743C73.5431 199.395 73.1103 197.884 72.2593 196.644L72.1128 196.434C71.5939 195.683 70.9378 194.646 70.0739 194.352C69.8774 194.284 69.7949 193.978 70.0108 193.873ZM71.2439 143.421L71.3849 143.294C72.3239 142.464 70.9458 141.095 70.0116 141.92C65.7364 145.699 64.2515 151.615 62.0338 156.656C61.5364 157.79 63.2082 158.78 63.7104 157.637C65.8259 152.826 67.23 147.071 71.2439 143.421ZM122.619 141.767C121.502 141.264 120.525 142.89 121.599 143.425L121.639 143.444C125.414 145.151 127.021 149.015 128.559 152.603C129.049 153.748 130.721 152.76 130.236 151.624L129.958 150.981C128.353 147.284 126.481 143.515 122.619 141.767ZM128.537 139.432C127.353 139.022 126.846 140.896 128.02 141.306C131.22 142.42 133.416 144.823 135.267 147.571C135.961 148.6 137.643 147.629 136.942 146.59C134.792 143.401 132.239 140.723 128.537 139.432Z" fill="black"/>
<path fill-rule="evenodd" clip-rule="evenodd" d="M122.037 219.765C120.406 219.1 118.951 217.989 117.887 216.571C117.517 216.078 117.421 215.557 117.498 215.081C117.586 214.545 117.902 214.06 118.334 213.735C118.767 213.408 119.309 213.247 119.833 213.329C120.289 213.4 120.742 213.65 121.1 214.167L121.175 214.27C121.808 215.126 122.632 215.829 123.571 216.282C124.477 216.718 125.489 216.922 126.537 216.803C128.532 216.578 129.907 215.498 131.369 214.032C131.55 213.847 131.732 213.656 131.914 213.462C132.029 213.286 132.189 213.173 132.366 213.114C132.563 213.048 132.785 213.052 132.989 213.123C133.186 213.192 133.362 213.322 133.48 213.495C133.592 213.66 133.655 213.863 133.635 214.097C133.501 215.616 132.707 216.972 131.579 218.037C130.327 219.219 128.666 220.037 127.103 220.324C125.381 220.64 123.626 220.414 122.037 219.765ZM127.916 196.327C129.748 197.441 132.54 200.039 130.568 202.801C128.248 205.237 124.908 202.445 123.262 201.182C121.735 200.203 120.021 202.72 121.437 203.863C133.331 212.673 138.159 196.619 128.842 195.017C127.817 194.841 127.436 195.983 127.916 196.327ZM106.6 186.079C106.803 183.566 110.63 182.995 111.01 185.482C111.351 187.71 110.95 189.757 109.947 191.764C108.988 193.68 106.578 192.786 106.396 191.041C106.152 188.701 106.474 187.643 106.6 186.079ZM135.732 184.966C136.266 184.267 137.036 183.79 137.959 184.06C140.843 184.903 139.993 188.998 138.98 190.992C138.43 192.074 136.651 192.349 135.847 191.396C134.537 189.841 133.909 186.737 135.575 185.206C135.62 185.127 135.67 185.047 135.732 184.966ZM109.906 175.08L110.361 175C111.771 174.756 113.523 174.522 114.52 175.656C115.048 176.257 115.23 177.374 114.52 177.949C113.27 178.961 111.888 178.569 110.39 178.654C109.155 178.725 107.969 178.93 106.779 179.27C104.171 180.016 102.045 181.377 99.8168 182.873C99.5244 183.069 99.226 182.695 99.3655 182.421C100.652 179.901 103.144 177.831 105.641 176.569C106.973 175.895 108.432 175.336 109.906 175.08ZM133.103 173.951L133.452 174.022C137.246 174.815 142.175 176.4 143.972 180.128C144.041 180.656 143.968 180.769 143.909 180.842L143.89 180.867C143.841 180.93 143.803 181.017 143.574 181.089C143.511 181.073 143.447 181.057 143.382 181.041C142.559 180.825 141.907 180.527 141.276 180.219L140.592 179.881C139.799 179.492 138.998 179.117 138.15 178.84C136.339 178.249 134.477 177.833 132.586 177.611C132.176 177.563 131.781 177.424 131.47 177.187C131.174 176.962 130.948 176.65 130.845 176.236C130.712 175.7 130.75 175.294 131.038 174.81C131.254 174.447 131.563 174.195 131.919 174.051C132.281 173.903 132.693 173.868 133.103 173.951Z" fill="black"/>
<path fill-rule="evenodd" clip-rule="evenodd" d="M148.376 198.499C146.742 200.694 143.714 201.394 140.92 201.152C134.896 200.572 132.999 193.727 132.802 188.407C136.842 189.544 132.46 181.491 146.271 180.606C151.139 180.2 149.797 183.141 151.948 185.29C151.904 189.801 151.153 194.702 148.376 198.499ZM119.68 193.316C116.123 209.98 96.6447 206.017 94.5986 190.995C96.488 189.661 95.9903 186.367 98.3376 185.174C102.058 182.796 106.708 182.897 110.932 182.953C116.332 183.324 117.871 185.562 120.645 188.003C120.511 189.634 120.127 191.567 119.68 193.316ZM156.092 177.846C155.892 177.813 155.692 177.781 155.492 177.752C155.336 177.663 155.153 177.595 154.94 177.554C154.453 177.431 153.97 177.347 153.488 177.302C146.565 175.744 130.55 177.957 129.889 183.867C127.684 184.603 125.777 183.944 123.221 184.009C121.276 175.877 87.6516 177.025 86.0344 181.928C86.0283 181.926 86.0223 181.924 86.016 181.923C84.4621 181.441 82.1714 181.557 80.3929 181.481C76.5955 181.402 72.7936 181.74 69.0782 182.541C62.1207 183.648 52.6252 184.943 57.464 193.634C57.465 193.636 57.4657 193.637 57.467 193.639L57.4677 193.638C58.3016 194.493 59.7169 193.805 59.7695 192.647C58.1427 188.529 61.8171 188.035 64.6443 186.852C71.679 184.323 78.841 183.973 86.1167 184.755C86.664 185.4 87.4946 185.962 88.3724 186.256C93.237 187.064 90.6733 190.674 93.7482 191.199C93.1834 203.782 108.455 210.651 117.304 202.379C120.837 198.923 121.679 193.805 122.498 189.191C122.931 189.093 123.206 188.856 123.367 188.543C124.409 187.502 125.063 186.542 127.123 186.256C129.183 185.971 130.768 186.544 130.983 186.719C131.037 186.828 131.095 186.937 131.162 187.047C131.256 187.209 131.385 187.339 131.53 187.441C129.496 199.972 139.22 207.897 149.037 201.398C153.302 197.384 154.204 191.238 154.382 185.753C154.96 185.404 155.326 184.728 155.126 183.877C154.85 182.705 155.497 181.69 156.527 181.18C157.866 180.518 157.629 178.101 156.092 177.846Z" fill="black"/>
</g>
<g clip-path="url(#clip2_96_2627)">
<path fill-rule="evenodd" clip-rule="evenodd" d="M377.791 408.416C368.823 408.444 360.108 408.751 351.115 408.781C314.555 408.903 277.66 408.725 240.968 407.243C230.597 406.824 228.008 406.834 217.683 406.184C211.586 406.162 193.272 405.658 194.189 397.351C194.594 381.88 198.423 366.474 199.629 351.044C201.944 322.038 203.915 292.125 215.539 264.995C218.229 258.516 224.007 254.279 229.727 250.469C235.464 246.359 236.872 241.796 242.166 237.153C243.285 236.171 249.642 235.771 253.062 233.281C258.041 229.656 260.509 223.722 262.367 222.711C263.734 221.968 263.709 216.84 266.448 215.025C270.124 212.589 281.838 210.778 286.1 210.439C290.191 210.114 297.305 210.797 301.143 212.296C307.544 214.794 310.096 219.561 312.915 225.701C350.154 237.214 384.191 256.709 394.761 296.032C403.877 329.012 404.211 364.369 400.69 398.194C399.985 400.667 400.479 404.544 398.342 406.184C405.768 406.61 378.799 408.142 377.791 408.416Z" fill="white"/>
<path fill-rule="evenodd" clip-rule="evenodd" d="M208.416 375.852C209.12 375.5 209.855 375.097 210.66 375.069C212.042 375.021 212.044 372.87 210.66 372.919C209.453 372.961 208.393 373.464 207.33 373.995C206.091 374.613 207.181 376.468 208.416 375.852ZM210.66 315.307C209.717 315.308 208.767 315.427 208.042 316.087C207.612 316.479 207.646 317.211 208.042 317.608C208.467 318.032 209.134 317.999 209.563 317.608C209.423 317.735 209.562 317.609 209.612 317.581C209.624 317.574 209.631 317.57 209.634 317.567C209.645 317.564 209.656 317.562 209.673 317.557C209.786 317.529 209.897 317.501 210.01 317.481C210.012 317.486 210.25 317.465 210.306 317.463C210.425 317.459 210.542 317.458 210.66 317.458C211.244 317.458 211.735 316.966 211.735 316.383C211.735 315.802 211.241 315.307 210.66 315.307ZM220.77 339.434C221.078 340.785 223.15 340.21 222.843 338.862C222.397 336.903 222.478 334.896 222.843 332.929C223.095 331.574 221.022 330.999 220.77 332.358C220.332 334.716 220.234 337.083 220.77 339.434ZM223.486 262.132C225.088 261.752 226.671 261.707 228.309 261.706C229.695 261.705 229.693 259.555 228.309 259.555C226.483 259.556 224.699 259.634 222.915 260.058C221.567 260.378 222.141 262.452 223.486 262.132ZM228.853 314.524C229.781 314.06 230.711 313.595 231.639 313.13C232.879 312.511 231.788 310.656 230.554 311.273L227.767 312.667C226.528 313.287 227.619 315.142 228.853 314.524ZM229.239 356.882C230.417 358.581 232.074 359.636 234.061 360.164C235.403 360.519 235.97 358.444 234.633 358.09C233.212 357.713 231.949 357.026 231.096 355.796C230.312 354.665 228.449 355.742 229.239 356.882ZM236.668 281.151C236.987 280.555 237.467 280.304 238.062 280.29C239.446 280.259 239.446 278.108 238.062 278.139C236.705 278.17 235.46 278.852 234.812 280.066C234.159 281.287 236.016 282.373 236.668 281.151ZM250.307 295.772C250.693 296.192 251.44 296.182 251.828 295.772C252.065 295.522 252.265 295.242 252.421 294.935C252.481 294.819 252.537 294.7 252.603 294.587C252.632 294.537 252.665 294.487 252.698 294.438C252.709 294.428 252.733 294.404 252.757 294.378C253.17 293.942 253.16 293.297 252.757 292.857C252.371 292.437 251.624 292.448 251.236 292.857C250.999 293.108 250.799 293.388 250.643 293.695C250.583 293.811 250.527 293.93 250.461 294.043C250.432 294.093 250.399 294.143 250.366 294.192C250.355 294.202 250.331 294.226 250.307 294.251C249.894 294.688 249.904 295.333 250.307 295.772ZM251.454 327.533C252.854 328.174 254.39 328.174 255.79 327.533C256.321 327.291 256.446 326.525 256.176 326.062C255.862 325.526 255.233 325.435 254.705 325.676C254.07 325.967 253.173 325.966 252.539 325.676C252.009 325.434 251.385 325.52 251.068 326.062C250.796 326.528 250.926 327.292 251.454 327.533ZM255.274 350.014C255.515 350.584 256.034 350.887 256.642 350.91C257.244 350.933 257.692 350.399 257.717 349.834C257.733 349.47 257.536 349.158 257.253 348.965C257.253 348.945 257.252 348.925 257.252 348.905C257.252 348.302 256.76 347.856 256.177 347.83C255.597 347.804 255.102 348.343 255.102 348.905C255.102 349.285 255.126 349.662 255.274 350.014ZM260.821 385.755C262.537 385.783 264.214 386.192 265.93 386.22C267.317 386.242 267.312 384.091 265.93 384.069C264.214 384.041 262.537 383.632 260.821 383.604C259.435 383.582 259.439 385.733 260.821 385.755ZM267.957 247.917C268.961 248.875 270.202 249.346 271.425 249.944C272.665 250.55 273.754 248.694 272.511 248.087C271.474 247.58 270.327 247.206 269.477 246.397C268.474 245.441 266.952 246.961 267.957 247.917ZM270.653 272.71C271.358 272.358 272.092 271.955 272.897 271.927C274.279 271.879 274.281 269.728 272.897 269.777C271.69 269.818 270.63 270.322 269.567 270.853C268.328 271.471 269.418 273.326 270.653 272.71ZM283.579 372.213C283.897 371.617 284.377 371.365 284.973 371.352C286.356 371.321 286.357 369.17 284.973 369.201C283.615 369.232 282.37 369.914 281.722 371.127C281.069 372.349 282.926 373.434 283.579 372.213ZM288.055 325.506C288.483 325.113 288.453 324.383 288.055 323.985C287.591 323.521 287.126 323.056 286.661 322.591C286.237 322.166 285.57 322.197 285.141 322.591C284.713 322.984 284.743 323.714 285.141 324.112C285.606 324.577 286.07 325.041 286.535 325.506C286.96 325.931 287.626 325.9 288.055 325.506ZM293.333 398.3C294.884 398.263 296.338 397.818 297.799 397.332C299.108 396.897 298.543 394.82 297.227 395.258C295.958 395.68 294.683 396.117 293.333 396.149C291.949 396.181 291.949 398.332 293.333 398.3ZM300.299 352.304C301.701 352.265 302.863 351.551 303.846 350.595C304.84 349.628 303.318 348.109 302.326 349.075C301.763 349.622 301.114 350.131 300.299 350.153C298.916 350.192 298.915 352.343 300.299 352.304ZM295.974 293.153C295.957 293.726 295.715 294.339 295.36 294.716C294.41 295.722 295.928 297.245 296.88 296.237C297.666 295.405 298.091 294.292 298.124 293.153C298.164 291.766 296.013 291.772 295.974 293.153ZM312.374 246.307C312.824 245.425 313.414 244.392 314.311 243.905C315.529 243.244 314.442 241.387 313.225 242.048C312.006 242.71 311.134 244.014 310.518 245.221C309.889 246.453 311.745 247.54 312.374 246.307ZM315.161 268.675C315.66 268.661 316.155 268.576 316.636 268.445C316.842 268.389 317.045 268.325 317.251 268.269C317.339 268.245 317.713 268.198 317.483 268.211C318.066 268.18 318.559 267.744 318.559 267.135C318.559 266.576 318.064 266.029 317.483 266.06C316.685 266.103 315.96 266.502 315.161 266.525C313.778 266.564 313.777 268.714 315.161 268.675ZM322.129 303.056H324.451C325.837 303.056 325.834 300.905 324.451 300.905H322.129C320.743 300.905 320.745 303.056 322.129 303.056ZM324.838 398.152C325.542 398.505 326.372 398.839 326.943 399.378C327.949 400.329 329.471 398.81 328.463 397.857C327.737 397.17 326.808 396.738 325.923 396.295C325.402 396.034 324.761 396.152 324.452 396.681C324.173 397.159 324.319 397.893 324.838 398.152ZM330.025 370.976C330.115 370.951 330.21 370.933 330.302 370.921C330.667 370.871 331.05 370.888 331.417 370.888C332.803 370.887 332.8 368.736 331.417 368.737C330.326 368.738 329.191 368.753 328.334 369.517C327.899 369.905 327.941 370.645 328.334 371.038C328.761 371.465 329.421 371.424 329.855 371.038C329.809 371.079 329.966 370.992 330.025 370.976ZM331.417 334.424C331.105 333.78 331.1 333.36 331.1 332.644C331.099 331.258 328.948 331.26 328.949 332.644C328.95 333.684 329.104 334.569 329.561 335.51C329.815 336.035 330.56 336.172 331.031 335.896C331.56 335.587 331.67 334.947 331.417 334.424ZM337.635 283.968C338.882 284.393 339.996 284.993 341.094 285.718C342.253 286.484 343.329 284.62 342.179 283.861C340.926 283.034 339.63 282.378 338.207 281.894C336.891 281.447 336.332 283.525 337.635 283.968ZM344.887 247.768C345.814 247.793 346.77 248.149 347.596 248.55C348.836 249.153 349.925 247.297 348.681 246.693C347.501 246.119 346.211 245.654 344.887 245.617C343.5 245.578 343.506 247.729 344.887 247.768ZM348.139 344.405C348.503 344.422 348.815 344.225 349.008 343.941C349.028 343.941 349.048 343.941 349.068 343.941C349.67 343.941 350.116 343.448 350.143 342.865C350.169 342.285 349.63 341.79 349.068 341.79C348.688 341.79 348.311 341.813 347.959 341.962C347.389 342.203 347.087 342.722 347.063 343.33C347.041 343.932 347.574 344.38 348.139 344.405ZM353.425 270.03C354.745 270.462 355.306 268.384 353.997 267.956C352.459 267.454 350.889 267.065 349.352 266.562C348.031 266.13 347.471 268.208 348.78 268.636C350.317 269.139 351.888 269.528 353.425 270.03ZM358.247 310.629C358.657 311.949 360.731 311.382 360.321 310.057C359.924 308.778 359.895 307.49 359.895 306.161C359.894 304.775 357.744 304.777 357.744 306.161C357.745 307.674 357.796 309.173 358.247 310.629ZM372.625 359.256C372.703 359.791 373.128 360.177 373.683 360.202C374.249 360.228 374.779 359.69 374.759 359.127C374.719 358.044 373.837 357.162 372.755 357.122C372.152 357.1 371.705 357.632 371.679 358.198C371.655 358.747 372.113 359.176 372.625 359.256ZM379.899 297.442C381.036 297.821 382.25 298.182 383.14 299.024C384.147 299.974 385.669 298.455 384.661 297.503C383.486 296.394 381.976 295.87 380.471 295.368C379.153 294.928 378.593 297.006 379.899 297.442ZM384.83 339.226C385.143 339.76 385.775 339.857 386.301 339.612C387.006 339.284 387.785 339.295 388.545 339.295C389.931 339.293 389.929 337.143 388.545 337.144C387.373 337.145 386.29 337.255 385.216 337.755C384.687 338.001 384.558 338.761 384.83 339.226ZM387.616 389.936C388.218 389.958 388.666 389.426 388.691 388.861C388.716 388.312 388.257 387.883 387.745 387.803C387.667 387.267 387.242 386.881 386.687 386.856C386.121 386.831 385.591 387.369 385.612 387.932C385.651 389.015 386.533 389.897 387.616 389.936ZM191.723 398.069C192.088 396.755 192.924 395.693 193.555 394.51C193.767 394.111 193.841 393.863 193.956 393.571C194.112 393.883 194.414 394.118 194.869 394.118C195.742 394.118 196.763 394.062 197.578 394.436C198.108 394.679 198.732 394.592 199.049 394.05C199.321 393.584 199.191 392.821 198.663 392.579C197.462 392.028 196.172 391.968 194.869 391.967C194.547 391.967 194.304 392.085 194.132 392.263C193.634 385.445 193.647 378.622 194.117 371.798C194.62 364.507 195.776 357.36 196.985 350.162C197.571 346.672 198.332 343.148 198.184 339.593C198.036 336.063 196.523 332.772 197.595 329.231C198.025 327.811 198.762 326.51 199.24 325.107C199.753 323.595 199.708 322.103 199.474 320.538C198.993 317.352 198.195 314.204 199.472 311.093C200.036 309.714 200.95 308.482 201.39 307.057C201.939 305.286 201.863 303.325 201.955 301.489C202.14 297.784 202.189 294.055 202.495 290.358C202.632 288.702 202.93 287.131 203.61 285.612C204.264 284.15 205.234 282.819 205.667 281.267C206.097 279.74 206.134 278.13 206.365 276.568C206.607 274.917 206.986 273.29 207.497 271.704C209.47 265.563 213.085 260.046 217.356 255.262C221.896 250.178 227.322 246.349 233.082 242.782C236.111 240.905 239.14 239.029 242.167 237.153C242.231 237.505 242.455 237.829 242.886 237.973C244.023 238.352 245.237 238.713 246.128 239.554C247.134 240.505 248.657 238.986 247.648 238.034C246.596 237.04 245.274 236.517 243.928 236.057C245.308 235.188 246.701 234.288 248.258 233.785C249.621 233.344 251.631 233.729 252.736 232.729C253.604 231.941 253.878 230.481 254.211 229.411C254.628 228.083 254.988 226.682 255.517 225.391C255.878 224.509 256.402 223.662 257.063 222.979C257.353 221.861 257.886 220.839 258.826 220.218C261.288 218.589 264.312 220.207 265.395 222.53C266.29 222.528 267.234 222.724 268.104 222.778C269.895 222.891 271.687 222.942 273.48 222.936C276.988 222.926 280.498 222.697 283.976 222.232C290.196 221.398 296.23 219.718 302.344 218.409C302.379 218.328 302.42 218.247 302.468 218.167C303.785 215.957 307.067 216.33 309.134 217.166C310.021 217.524 310.924 217.976 311.432 218.815C311.969 219.178 312.434 219.619 312.744 220.084C313.383 221.044 313.878 222.979 315.176 223.141C316.031 223.246 316.899 223.082 317.767 223.205C318.853 223.356 319.826 223.738 320.828 224.173C328.462 227.488 336.353 231.175 344.637 232.46C346.58 232.761 348.559 233.073 350.247 234.162C351.617 235.046 352.677 236.262 353.808 237.415C354.91 238.539 355.818 239.036 357.391 239.238C359.299 239.483 360.952 240.01 362.347 241.397C363.505 242.55 364.261 244.024 365.169 245.363C366.094 246.729 367.451 247.498 368.86 248.291C372.19 250.167 375.292 252.434 377.993 255.152C383.683 260.885 387.129 268.252 390.601 275.43C394.356 283.195 397.866 291.054 400.302 299.346C402.688 307.488 404.108 315.863 404.763 324.316C405.454 333.186 405.551 342.091 406.126 350.966C406.414 355.4 406.631 359.839 406.852 364.275C407.067 368.658 407.381 373.048 407.33 377.436C407.233 385.919 405.538 394.429 402.573 402.371C401.834 404.347 401.014 406.297 400.141 408.217C399.374 409.902 396.754 409.714 395.931 408.217C395.743 407.872 395.595 407.517 395.472 407.157C393.321 407.176 391.15 407.009 389.013 407.208C385.239 407.56 381.458 407.757 377.673 407.991C370.185 408.456 362.683 408.765 355.192 409.193C354.465 409.234 353.739 409.276 353.012 409.319C358.35 392.791 357.658 374.922 358.503 357.733C358.571 356.347 356.42 356.355 356.352 357.733C355.504 374.996 356.226 392.91 350.699 409.465C348.555 409.61 346.414 409.788 344.28 410.048C342.554 410.255 340.82 410.499 339.079 410.413C337.103 410.319 335.173 409.867 333.246 409.475C329.744 408.762 326.371 409.085 322.855 409.523C319.095 409.994 315.321 410.255 311.537 410.419C296.383 411.083 281.127 411.688 265.978 410.674C262.312 410.429 258.654 410.085 255.012 409.617C251.26 409.136 247.548 408.327 243.799 407.867C240.103 407.415 236.705 408.655 233.053 408.883C229.328 409.117 225.503 408.34 221.812 407.894C220.608 407.748 219.403 407.606 218.198 407.465C219.75 396.825 220.632 386.104 221.489 375.388C221.6 374.005 219.449 374.017 219.339 375.388C218.489 386.02 217.626 396.661 216.077 407.218C209.686 406.474 203.29 405.721 196.966 404.563C195.165 404.235 193.375 403.7 192.298 402.092C191.499 400.901 191.338 399.441 191.723 398.069Z" fill="black"/>
<path fill-rule="evenodd" clip-rule="evenodd" d="M240.014 172.417C240.592 167.332 239.843 156.702 239.793 156.056C239.476 151.973 241.388 135.851 245.003 137.337C251.068 132.534 259.145 131.474 266.697 130.967C282.386 129.915 299.075 132.331 311.189 142.892C317.18 148.377 323.012 156.354 322.543 164.66C327.986 172.533 335.66 183.332 328.878 192.536C326.573 195.477 322.909 196.572 320.013 198.799C314.188 203.499 310.533 210.244 304.653 214.916C289.075 228.919 262.622 231.844 247.316 215.917C235.48 204.381 237.394 187.123 239.476 172.417C240.876 162.53 238.885 182.339 240.014 172.417Z" fill="white"/>
<path fill-rule="evenodd" clip-rule="evenodd" d="M287.654 109.401C283.458 108.554 279.15 108.027 274.865 108.186L274.535 108.199C271.311 108.328 267.228 108.613 264.416 110.488C264.254 110.326 263.994 110.242 263.758 110.355C260.416 111.951 256.74 113.104 253.221 114.251C249.718 115.392 246.084 116.145 242.413 116.448C241.032 116.563 239.85 118.055 240.724 119.393C240.932 119.712 241.135 120.034 241.337 120.357C240.999 120.321 240.662 120.285 240.324 120.251C239.213 120.139 238.104 121.325 238.169 122.407C238.211 123.087 238.284 123.76 238.393 124.424C237.969 124.415 237.549 124.479 237.142 124.651C235.085 125.52 235.228 127.972 235.382 129.837C235.595 132.426 236.563 135.168 238.36 137.105C237.019 138.499 236.069 140.164 235.502 142.141C235.091 143.585 234.862 145.123 234.975 146.626L235.011 147.076C235.151 148.707 235.428 150.513 236.601 151.686C237.203 152.291 237.945 152.512 238.652 152.442C238.225 156.201 237.951 159.981 237.693 163.748L237.572 165.548C236.996 174.254 236.563 183.017 236.677 191.737C236.782 199.886 238.391 207.796 243.388 214.413C247.939 220.439 254.473 224.88 261.864 226.569C265.847 227.48 269.914 227.545 273.946 226.964C275.9 226.682 277.867 226.249 279.722 225.566C281.775 224.808 283.251 223.692 284.632 222.02C285.286 221.226 284.971 219.538 283.67 219.697C281.702 219.935 279.906 220.223 278.019 220.805L277.749 220.89C275.87 221.493 273.924 221.942 271.96 222.132C267.936 222.522 263.851 222.13 259.996 220.909C253.72 218.919 248.315 214.486 244.85 208.915C240.738 202.311 240.273 194.815 240.332 187.223C240.396 178.891 240.667 170.554 241.109 162.231L241.184 160.844C241.418 156.561 241.644 152.275 241.843 147.989C241.904 146.645 241.998 145.29 242.168 143.948C243.719 143.039 245.108 141.786 246.014 140.24C247.834 140.993 249.747 141.536 251.508 141.969C255.587 142.973 259.821 143.216 263.972 142.588C265.092 143.051 266.234 143.457 267.394 143.808C267.707 143.947 268.02 144.083 268.334 144.217C271.129 145.414 273.965 146.427 276.916 147.169L277.641 147.35C279.194 147.733 280.881 148.11 282.533 148.229C282.805 148.333 283.098 148.422 283.418 148.5C284.923 148.866 286.485 148.981 288.027 148.852C289.53 148.726 290.616 147.207 289.788 145.785C289.183 144.747 288.573 143.712 287.957 142.679C290.099 143.572 292.312 144.314 294.542 144.943C296.795 145.578 299.079 146.113 301.367 146.605C302.59 146.865 303.818 147.097 305.038 147.357C305.912 147.543 307.253 147.64 307.966 148.215C308.753 148.847 308.976 150.32 309.275 151.229C309.667 152.409 310.035 153.595 310.371 154.794C311.04 157.187 311.589 159.615 312.013 162.067C312.438 164.522 312.723 167.001 312.882 169.488C313.04 171.972 312.97 174.473 313.225 176.946C313.363 178.258 314.771 178.933 315.811 178.017C315.933 177.909 316.056 177.8 316.178 177.69L316.359 177.524C317.249 176.718 318.112 175.863 318.824 174.9C318.953 174.723 319.077 174.537 319.192 174.349C319.211 174.349 319.227 174.344 319.246 174.33L319.444 174.182C321.617 172.563 325.249 170.453 327.369 173.142C328.044 173.999 328.39 175.089 328.677 176.142L329.181 178.025C329.506 179.254 329.813 180.49 329.992 181.748C330.398 184.566 330.194 187.814 328.256 190.073C327.482 190.976 326.414 191.621 325.224 191.791C324.56 191.882 323.904 191.769 323.246 191.686C322.576 191.602 321.931 191.737 321.262 191.672C320.198 191.567 319.733 192.842 320.13 193.643C320.345 194.073 320.598 194.444 320.886 194.759C320.655 194.958 320.434 195.173 320.222 195.399C319.593 195.601 319.029 196.033 318.606 196.606C318.265 197.069 318.088 197.571 318.058 198.101C318.021 198.233 317.988 198.367 317.959 198.504L317.382 199.44C317.255 199.646 317.129 199.849 317.002 200.048C315.534 202.36 313.905 204.317 311.881 206.162C309.933 207.936 307.818 209.525 305.987 211.429L305.771 211.655C304.065 213.454 302.266 215.632 302.934 218.247C303.106 218.919 304.044 219.403 304.657 218.949C306.627 217.486 307.619 215.169 309.29 213.394C311.011 211.566 312.917 209.923 314.642 208.1C316.274 206.379 317.561 204.43 318.531 202.285C318.918 202.712 319.483 203.016 320.265 203.134C321.609 203.336 322.861 202.548 323.447 201.384C323.824 201.551 324.208 201.701 324.595 201.819C326.632 202.443 327.914 200.177 327.146 198.502C326.735 197.604 326.221 196.824 325.584 196.168C327.576 195.894 329.602 194.864 330.911 193.579C334.196 190.35 334.647 185.496 333.908 181.181C333.516 178.893 332.839 176.578 331.959 174.43C331.806 174.056 331.642 173.68 331.462 173.309C331.562 173.306 331.664 173.263 331.729 173.18C332.323 172.368 333.045 171.703 333.486 170.795C333.892 169.961 334.343 169.117 334.664 168.249C335.322 166.471 335.644 164.466 335.859 162.586C336.303 158.739 336.131 154.915 335.542 151.092C334.54 144.58 332.119 138.348 328.552 132.88C328.746 132.778 328.932 132.655 329.106 132.509L329.191 132.434L329.33 132.308C330.348 131.387 330.26 129.66 329.33 128.727L329.037 128.432C328.665 128.063 328.344 127.77 327.743 127.367C327.655 127.308 327.564 127.252 327.472 127.2C327.787 126.619 327.896 125.939 327.677 125.189C326.914 122.577 323.156 122.669 320.774 123.808C318.14 121.456 315.218 119.414 312.051 117.76C304.509 113.824 295.981 111.079 287.654 109.401ZM326.639 178.205C325.231 177.746 323.36 178.711 322.094 179.292C320.49 180.028 319.124 181.117 317.802 182.268C317.143 182.843 317.025 183.784 317.189 184.588C317.205 184.669 317.221 184.752 317.24 184.836C317.415 185.693 318.372 186.368 319.219 186.344C320.99 186.296 321.834 184.766 322.836 183.47C322.954 183.679 323.102 183.873 323.285 184.018L323.409 184.115C323.825 184.432 324.284 184.685 324.833 184.661C325.223 184.642 325.596 184.543 325.941 184.362C326.801 183.908 327.18 182.795 326.946 181.889C326.801 181.319 326.468 180.872 326.032 180.563L326.194 180.452C326.542 180.21 326.858 179.956 327.105 179.58L327.161 179.491H327.14C327.408 179.028 327.233 178.399 326.639 178.205Z" fill="black"/>
<path fill-rule="evenodd" clip-rule="evenodd" d="M260.304 205.262C262.284 205.836 264.409 205.887 266.427 205.295C268.258 204.757 270.138 203.575 271.485 202.01C272.682 200.62 273.457 198.93 273.427 197.127C273.423 196.921 273.349 196.749 273.236 196.615C273.114 196.472 272.944 196.373 272.762 196.33C272.574 196.286 272.376 196.302 272.207 196.379C272.054 196.448 271.923 196.566 271.841 196.739C271.634 197.011 271.428 197.279 271.221 197.539C269.556 199.596 267.944 201.133 265.44 201.684C264.082 201.983 262.725 201.85 261.481 201.394C260.148 200.905 258.944 200.046 258 198.947C257.574 198.45 257.07 198.248 256.578 198.244C256.02 198.24 255.468 198.5 255.052 198.914C254.644 199.322 254.371 199.876 254.346 200.455C254.324 200.963 254.49 201.494 254.931 201.968C256.384 203.529 258.267 204.672 260.304 205.262ZM260.364 179.507C258.335 180.741 255.242 183.618 257.426 186.678C259.996 189.376 263.696 186.283 265.52 184.884C267.21 183.799 269.11 186.588 267.541 187.854C254.365 197.612 249.017 179.829 259.338 178.056C260.474 177.86 260.896 179.125 260.364 179.507ZM279.35 174.076C280.003 173.659 280.77 173.516 281.62 173.903C282.285 174.205 283.451 175.213 284.262 176.538C284.817 177.444 285.21 178.508 285.128 179.615C285.109 179.872 285.204 180.062 285.354 180.202C285.473 180.313 285.644 180.395 285.845 180.42C286.015 180.442 286.206 180.422 286.361 180.374C286.656 180.281 286.812 180.09 286.871 179.934C287.439 178.425 287.195 176.741 286.558 175.222C285.699 173.172 284.139 171.454 283.117 170.901C281.367 169.953 279.304 169.909 277.552 170.875C276.061 171.697 275.129 173.023 274.202 174.376C274.005 174.663 273.809 174.949 273.607 175.229C273.202 175.791 273.161 176.348 273.318 176.826C273.492 177.355 273.935 177.802 274.49 178.035C275.002 178.251 275.596 178.282 276.123 178.06C276.567 177.872 276.975 177.507 277.233 176.886C277.668 175.842 278.392 174.689 279.35 174.076ZM246.22 176.4C246.666 176.633 247.016 176.703 247.511 176.555C247.785 176.473 248.056 176.315 248.268 176.103C248.479 175.892 248.63 175.631 248.689 175.341C248.834 174.625 249.226 173.955 249.784 173.518C250.26 173.145 250.862 172.947 251.53 173.059C252.251 173.179 252.937 173.641 253.41 174.186C253.568 174.368 253.692 174.575 253.816 174.781C254.049 175.166 254.275 175.523 254.597 175.806C254.718 175.913 254.902 175.988 255.08 175.988C255.152 175.988 255.225 175.976 255.295 175.954C256.012 175.234 256.15 174.688 256.127 174.146C256.103 173.578 255.879 173.003 255.517 172.467C254.668 171.208 253.057 170.176 251.969 169.942C250.48 169.622 249.001 170.006 247.816 170.838C246.595 171.694 245.691 173.023 245.41 174.521C245.342 174.882 245.371 175.271 245.508 175.609C245.642 175.939 245.876 176.221 246.22 176.4ZM276.066 160.654C276.96 161.525 278.018 161.66 279.088 161.78C279.683 161.847 280.157 161.902 280.624 162.007C281.908 162.297 283.177 162.734 284.335 163.362C285.545 164.02 286.864 164.812 287.813 165.828C288.038 166.07 288.251 166.323 288.464 166.577C288.658 166.809 288.845 167.032 289.042 167.247C289.269 167.494 289.484 167.753 289.698 168.012C289.83 168.23 289.856 168.283 289.883 168.339C289.923 168.423 289.97 168.517 290.023 168.617C290.096 168.755 290.181 168.906 290.271 169.043C290.419 169.293 290.499 169.362 290.568 169.393C290.683 169.444 290.791 169.469 290.897 169.455C290.996 169.442 291.089 169.395 291.18 169.317C291.639 168.93 291.775 168.293 291.761 167.618C291.74 166.592 291.362 165.457 291.013 164.76C290.203 163.139 289.079 161.453 287.728 160.243C286.187 158.862 284.5 157.816 282.563 157.096C281.359 156.648 279.965 156.237 278.653 156.289C277.709 156.326 276.807 156.607 276.063 157.308C275.606 157.738 275.387 158.351 275.387 158.962C275.387 159.586 275.615 160.214 276.066 160.654ZM244.401 168.631C244.458 168.724 244.537 168.788 244.624 168.827C244.716 168.867 244.819 168.879 244.917 168.862C245.015 168.846 245.108 168.801 245.182 168.734C245.252 168.668 245.306 168.582 245.33 168.477C245.924 165.87 247.076 163.93 249.535 162.68C250.744 162.064 252.135 161.673 253.452 161.362C253.835 161.271 254.239 161.212 254.646 161.153C255.922 160.967 257.208 160.753 258.04 159.721C258.541 159.1 258.751 158.305 258.632 157.578C258.52 156.893 258.12 156.266 257.394 155.89C255.584 154.954 253.335 155.872 251.508 156.654C251.372 156.713 251.239 156.769 251.109 156.824C249.322 157.579 247.692 158.575 246.352 159.999C245.289 161.129 244.305 162.8 243.908 164.518C243.578 165.948 243.655 167.408 244.401 168.631Z" fill="black"/>
<path fill-rule="evenodd" clip-rule="evenodd" d="M254.671 209.605C257.174 207.374 259.98 202.89 263.576 206.438C264.466 207.441 264.826 209.689 266.186 210.129C267.992 210.716 269.782 208.804 270.398 207.336C272.916 199.179 262.505 196.942 256.574 198.26C253.677 199.45 251.543 204.241 251.414 206.742C251.33 208.422 252.752 210.893 254.671 209.605ZM235.786 197.033C235.81 196.925 235.845 196.827 235.886 196.738C236.993 196.319 237.869 196.746 238.41 197.544C238.392 197.742 238.333 197.943 238.296 198.139C238.714 199.02 239.09 200.109 239.656 200.87C239.768 200.878 239.884 200.866 239.995 200.834C249.379 201.814 244.798 191.993 254.316 189.553C261.673 188.339 274.971 189.73 278.442 197.39C281.179 209.626 295.097 201.1 299.667 194.737C304.543 188.946 307.696 181.869 310.736 175.002C311.378 173.549 313.383 174.588 313.165 175.983C315.975 181.621 315.881 188.394 316.577 194.571C317.761 206.894 318.914 224.177 307.467 231.702C292.554 248.564 255.312 254.515 238.11 239.021C232.156 226.215 232.89 210.592 235.786 197.033Z" fill="black"/>
<path fill-rule="evenodd" clip-rule="evenodd" d="M245.582 159.511C239.274 159.511 235.673 160.869 234.354 160.974L234.314 160.977C233.766 161.012 233.273 161.058 232.757 161.258C230.858 161.989 230.548 163.982 231.657 165.238C231.734 167.836 231.393 170.872 231.979 173.478C232.702 184.467 237.868 186.322 240.805 186.999C242.279 187.339 244.027 187.474 245.593 187.115C248.264 187.015 250.905 186.179 253.165 184.722C256.312 182.691 258.65 179.57 259.409 175.867C259.768 174.101 259.936 172.263 259.74 170.469L259.711 170.222C260.734 169.732 261.92 169.64 263.142 169.596C263.726 169.576 264.301 169.557 264.86 169.582C265.406 169.643 265.946 169.724 266.488 169.835C267.079 170.013 267.637 170.308 268.153 170.774L268.188 171.455C268.285 173.156 268.509 174.862 268.853 176.531C269.361 178.993 270.179 181.344 271.919 183.091C272.508 183.971 273.237 184.757 274.122 185.437C277.337 187.913 281.705 188.822 285.713 188.48C293.851 187.785 298.555 181.323 299.639 178.561L299.704 178.393C300.487 176.34 301.111 173.676 303.585 173.234L304.112 173.14C305.241 172.928 306.283 172.633 306.945 171.531C307.235 171.049 307.384 170.511 307.421 169.963C307.807 169.992 308.193 170.021 308.577 170.048C311.644 170.697 330.036 171.247 331.504 171.247C331.504 171.247 334.326 172.435 335.517 171.515C336.343 170.874 336.614 170.021 336.16 169.055C335.474 167.601 332.309 166.726 330.904 166.449C330.904 166.449 308.229 166.637 306.597 166.328C305.587 165.286 303.781 165.429 302.271 165.264C301.022 164.373 299.274 163.776 297.893 163.376C297.612 163.27 297.333 163.167 297.062 163.069C294.531 162.168 291.9 161.69 289.229 161.434C286.474 161.172 283.712 161.29 280.974 161.666C279.82 161.822 278.676 162.025 277.541 162.289C275.509 162.557 273.488 162.999 271.455 163.523L271.048 163.629C268.907 164.19 266.706 164.676 264.49 164.295C262.685 163.987 260.95 163.293 259.286 162.541L259.07 162.443C255.411 160.772 249.698 159.511 245.582 159.511ZM277.761 165.62C279.111 165.323 279.688 167.405 278.333 167.702C277.375 167.913 276.562 168.397 276.013 169.216L275.955 169.306C275.218 170.478 273.355 169.396 274.097 168.215C274.932 166.887 276.229 165.957 277.761 165.62ZM238.226 164.329C238.702 163.993 239.422 164.242 239.699 164.716C240.003 165.238 239.803 165.819 239.358 166.16L239.312 166.194C238.904 166.482 238.505 166.998 238.455 167.528L238.451 167.594C238.398 168.979 236.245 168.986 236.299 167.594C236.352 166.232 237.14 165.094 238.226 164.329Z" fill="black"/>
</g>
</g>
<defs>
<clipPath id="clip0_96_2627">
<rect width="375" height="400" fill="white"/>
</clipPath>
<clipPath id="clip1_96_2627">
<rect width="275.632" height="298.601" fill="white" transform="translate(-42.3672 101.157)"/>
</clipPath>
<clipPath id="clip2_96_2627">
<rect width="305.315" height="330.758" fill="white" transform="matrix(-1 0 0 1 448.998 69)"/>
</clipPath>
</defs>
</svg>
