<svg width="486" height="842" viewBox="0 0 486 842" fill="none" xmlns="http://www.w3.org/2000/svg">
<path fill-rule="evenodd" clip-rule="evenodd" d="M359.317 334.898L362.223 334.647C363.653 313.988 359.633 293.69 354.939 273.726L352.019 273.875C350.988 285.381 344.216 296.279 347.317 308.12C350.283 317.472 356.566 325.533 359.317 334.898ZM27.869 230.85L29.5701 231.165C26.4012 225.951 29.3564 224.235 32.942 219.924L33.3325 220.708L34.7121 218.089C34.9861 217.424 35.2659 216.859 36.0224 216.61C36.7615 213.352 38.9613 210.368 41.8911 208.747L42.4523 209.295C43.6135 208.413 45.0131 208.078 46.3458 207.669C43.4853 203.919 41.6453 199.053 39.7164 195.032C38.1458 190.808 35.6903 186.709 35.229 182.427C35.6003 178.311 40.0791 180.984 42.2636 183.037C48.9365 188.12 54.6833 196.169 58.9898 205.944C66.3852 204.273 70.6275 206.036 72.6819 214.812C74.573 220.773 76.5061 226.888 76.7614 233.069C77.7543 232.773 79.5156 231.66 80.4672 232.533C96.9035 248.152 116.311 260.184 135.079 273.353C149.263 264.292 156.644 246.364 164.444 232.907C178.053 209.807 191.661 175.991 226.664 176.11C231.303 175.69 235.834 175.208 240.213 174.038C241.909 173.638 244.005 173.156 244.58 172.262C245.618 169.38 245.814 166.263 247.638 163.621C252.642 156.557 263.483 156.002 271.979 157.535C286.402 159.857 286.039 158.502 287.081 171.677C287.393 174.804 290.184 175.252 293.164 175.9C296.547 176.826 299.994 177.583 303.471 178.193C303.11 178.105 302.75 178.018 302.389 177.929C358.84 178.706 396.322 235.575 403.758 275.808C412.395 316.97 401.224 362.779 383.564 397.35C384.322 409.94 381.478 422.587 379.678 434.996C378.548 438.101 374.635 438.403 373.516 434.807L372.137 430.074L370.661 434.785C369.725 437.7 368.221 438.047 366.868 438.067C365.189 438.067 364.268 437.348 364.213 433.558L361.433 432.977C360.361 434.75 359.297 436.318 357.613 437.408C354.228 458.782 352.103 481.007 343.885 501.689C340.608 509.365 335.576 516.334 331.88 523.864C349.305 558.021 352.226 595.872 356.41 632.444C356.074 632.466 354.344 632.598 353.975 632.626L354.929 634.828C356.233 635.307 356.999 636.316 357.393 637.432C358.272 637.369 361.939 637.393 361.735 638.122C361.311 642.419 359.924 645.484 357.295 647.722C357.259 648.411 357.21 649.114 357.149 649.766C362.364 665.569 366.185 682.416 368.507 699.788C371.459 702.254 372.198 710.368 367.795 712.532C355.641 719.8 339.314 723.251 323.942 721.941C307.306 720.574 287.464 714.818 295.426 698.34C295.529 697.828 296.337 697.804 296.974 697.915C298.384 696.727 299.913 695.828 301.567 695.324C304.853 688.196 307.808 680.723 310.386 673.262C311.642 669.835 312.941 666.292 312.834 662.534C312.212 653.306 311.119 649.492 303.734 642.223C299.163 644.132 290.452 630.31 288.455 627.409C284.256 618.826 284.418 632.404 284.418 632.404C282.67 637.706 281.98 646.562 277.608 650.508C275.231 664.247 291.502 670.541 281.017 685.777C284.566 685.988 284.896 687.221 284.834 690.963C284.846 693.65 284.927 696.47 284.343 698.981C283.636 702.067 280.356 702.894 275.433 703.804C271.444 704.57 267.603 705.446 263.644 706.273C259.64 707.429 255.421 707.334 253.775 703.817C233.948 709.653 176.79 708.985 157.885 701.253C152.664 699.438 148.982 698.412 153.777 693.303C156.416 678.722 204.07 695.156 210.157 679.163C211.025 677.086 222.488 664.082 225.596 662.534C224.327 660.948 225.647 648.186 225.596 647.722C224.787 640.296 210.218 606.666 208.599 591.827C206.934 566.611 208.495 545.352 199.647 519.724C187.278 479.147 163.25 441.068 162.925 398.129C163.338 391.01 161.066 383.431 163.126 376.446L160.567 375.291C160.199 375.659 159.533 375.649 159.4 375.148C157.722 372.782 159.603 369.946 159.989 367.356C159.111 366.539 159.55 365.795 160.61 365.35C171.976 330.511 190.987 325.422 185.754 281.874C177.215 297.584 158.299 313.486 137.449 311.148C116.445 313.874 67.448 269.448 57.985 255.086C56.2506 255.203 56.2294 254.123 55.9655 253.106C47.3225 253.989 39.2326 248.099 39.0714 240.893C31.4872 244.975 23.3819 239.145 27.4006 232.024C27.5585 231.639 27.7188 231.247 27.869 230.85Z" fill="white"/>
<path fill-rule="evenodd" clip-rule="evenodd" d="M247.123 161.791C247.079 161.64 246.837 161.684 246.825 161.827C246.583 164.744 245.777 167.822 244.549 170.682C244.11 170.744 243.688 170.959 243.38 171.376C242.967 171.936 240.991 172.327 239.959 172.591L239.812 172.629C235.531 173.776 231.062 174.24 226.621 174.649C205.736 175.651 198.134 181.331 186.352 195.681C172.366 211.849 164.518 231.036 153.975 248.88C151.381 253.219 148.579 257.456 145.501 261.552L145.06 262.136C142.348 265.703 139.34 269.295 135.214 271.702C125.049 264.306 114.179 257.703 104.123 250.193L103.183 249.486C95.6383 243.827 88.4333 237.83 81.5769 231.546C80.7682 230.804 79.251 230.61 78.1294 231.045C77.691 225.389 75.8501 219.841 74.1532 214.376C72.371 207.337 69.2759 202.579 59.9383 204.321L59.6992 203.803C55.9666 195.772 50.9862 187.968 43.5266 182.098L43.0374 181.716C41.4149 180.437 39.2858 178.604 37.0069 178.77C34.9378 178.918 33.8749 180.543 33.7926 182.195C33.6979 184.156 34.6829 186.152 35.3884 187.989L35.4482 188.146C36.3576 190.559 37.3375 192.952 38.3736 195.326C39.3712 197.61 40.4397 199.872 41.5581 202.113C42.6983 203.988 43.5371 207.092 45.6139 208.226C46.686 208.779 47.7902 208.035 47.9044 207.084C48.0665 205.838 47.2403 204.744 46.6323 203.659C46.0715 202.661 45.5221 201.658 44.9882 200.65C42.8409 196.592 40.9143 192.449 39.259 188.223L39.2094 188.086C38.6459 186.575 36.7755 183.064 37.4526 181.824C38.1519 181.83 39.5914 183.111 40.1003 183.493C48.1049 189.246 53.3074 197.196 59.2591 204.449C55.5244 205.375 51.47 205.81 48.3679 207.985C41.987 212.816 47.111 222.382 55.6643 220.601C53.277 225.003 51.2239 232.113 55.4548 236.09C56.7267 237.124 59.1972 236.794 59.5841 235.146C59.9971 233.396 59.5015 231.896 59.0469 230.201C58.2234 226.747 57.724 223.211 58.2854 219.695L58.4619 219.604C59.9116 218.841 60.8232 217.983 60.7795 216.405C60.9681 215.264 59.5661 213.726 58.1584 214.66C57.701 214.962 57.1428 214.985 56.662 215.29C55.8459 215.963 54.832 216.493 53.6751 216.484L53.5627 216.482C52.0751 216.472 50.9771 215.694 50.5225 214.486C49.2769 211.173 53.589 210.06 56.3931 209.423L57.1174 209.229C64.7714 207.199 67.5455 207.166 69.4689 214.97L69.6994 215.617C71.6902 221.235 73.5186 226.983 76.9103 232.106L76.3611 233.244C72.8376 240.508 68.3859 248.78 58.964 251.001C58.6272 248.557 55.5796 248.468 53.3738 248.529C50.5267 248.396 47.6692 247.143 45.6579 245.342C43.9011 243.807 43.0177 241.668 41.0743 240.299C41.9539 238.564 39.9674 236.65 37.8924 237.648C36.4933 238.318 35.6489 239.275 33.9605 239.47C32.4643 239.644 31.0859 239.191 29.9495 238.359C26.9831 236.185 28.394 232.989 27.6679 230.142C28.6239 231.577 30.2119 232.677 31.9124 233.437C43.265 239.07 43.1508 228.025 36.8767 229.84C30.0614 228.494 30.1765 226.358 32.7241 221.34L32.7939 221.161C33.2184 220.098 34.0927 218.286 33.2495 217.173C33.2022 217.116 33.1166 217.098 33.0547 217.15C32.2751 217.815 31.9681 218.93 31.3102 219.713L30.6845 220.36C28.2563 222.885 25.6165 225.901 27.1985 229.3C27.0333 229.269 26.8529 229.331 26.7971 229.504C26.0648 231.815 24.61 234.084 24.911 236.556C25.5403 241.972 32.3085 244.946 37.9131 242.688C38.9907 249.651 46.9056 254.663 54.8379 254.353C55.0887 255.307 55.9034 256.146 57.1638 256.233C68.8376 272.457 114.726 314.195 137.23 312.451C139.382 313.298 142.121 312.873 144.4 312.617C161.877 310.64 176.483 299.551 184.631 286.408C187.626 329.459 170.702 328.937 159.377 364.603C158.243 365.22 157.582 366.566 158.461 367.704C157.975 369.862 156.98 372.073 157.364 374.287C157.552 374.919 157.933 375.495 158.279 376.073C158.989 377.253 160.863 377.111 161.741 376.193C160.253 380.864 160.887 385.767 161.269 390.528C161.502 393.325 161.484 396.083 161.487 398.882C161.931 441.491 185.924 479.91 198.258 520.334C201.748 531.665 204.428 543.211 205.481 554.917C206.6 567.369 205.821 579.89 207.167 592.327C208.756 607.027 213.349 621.302 218.71 635.266C218.345 636.072 218.755 637.095 219.611 637.612C219.903 638.365 220.195 639.112 220.488 639.861C220.012 641.857 219.894 643.86 219.992 645.924C220.073 648.883 221.143 651.819 220.697 654.775C220.351 656.069 219.141 657.311 219.909 658.697L219.559 658.89C217.524 660.024 215.579 661.268 214.242 663.021C213.95 663.404 213.728 664.195 213.395 664.466C213.047 664.748 212.397 664.781 211.969 664.914C209.801 665.486 208.438 667.183 208.625 669.153C203.549 670.42 205.298 674.892 200.059 678.003C194.681 681.383 187.399 681.754 181.048 682.631L170.224 684.128L169.569 684.197C162.442 684.961 153.207 686.45 152.339 693.89C151.007 694.689 150.551 696.319 150.167 697.61C149.871 698.63 149.901 699.684 150.765 700.49C151.783 701.44 153.593 701.83 154.931 702.337C156.68 702.936 158.202 703.962 160.098 704.25C162.364 705.062 164.865 705.54 166.93 705.873C189.676 709.525 213.016 710.406 236.04 708.482C239.8 708.168 243.558 707.784 247.298 707.318L247.743 707.262C249.605 707.02 251.527 706.692 253.227 706.001C255.605 709.471 260.182 709.035 264.036 708.05C267.062 707.401 270.087 706.761 273.113 706.121C277.796 705.027 284.673 704.801 285.828 699.755C286.413 697.21 286.374 694.378 286.345 691.791L286.351 691.017C286.359 688.831 286.19 685.814 283.314 685.349C287.265 679 286.404 671.193 282.723 664.899L282.528 664.59C279.82 660.282 278.129 656.685 279.028 651.597C280.831 650.123 281.672 648.007 282.34 645.927C284.215 640.061 285.781 634.112 286.988 628.115C289.773 632.666 293.133 636.942 296.909 640.918C298.41 642.774 299.64 643.374 302.071 644.095C302.449 644.234 302.833 644.236 303.193 644.147C305.444 646.793 308.176 648.89 309.359 652.05C310.649 655.545 311.142 659.388 311.396 663.041C311.531 667.801 309.245 672.296 307.809 676.816C305.56 683.055 303.049 689.225 300.262 695.301C298.439 695.673 295.68 695.488 295.015 697.382C294.588 697.606 294.237 697.966 294.052 698.489L293.895 698.934C292.563 702.767 291.433 707.194 293.163 711.034C297.944 720.336 313.309 722.655 323.819 723.769C339.383 725.051 355.71 721.825 368.667 714.132C370.497 713.019 371.745 711.752 372.049 709.78L372.097 709.41C372.501 706.137 372.564 702.288 369.956 699.763C367.7 683.03 364.002 666.303 358.678 650.095C358.72 649.637 358.752 649.179 358.779 648.719C361.751 646.034 362.914 642.255 363.247 638.625C363.198 636.501 360.076 636.689 358.327 636.328C353.907 598.482 351.368 559.455 333.527 524.148C337.084 517.018 341.892 510.22 345.082 502.911L345.307 502.388C346.63 499.387 347.432 496.327 348.48 493.265C349.161 491.798 349.724 490.312 349.997 488.739C354.193 472.082 356.566 455.138 359.041 438.242C360.708 437.047 361.809 435.324 362.775 433.739L362.783 434.141C362.855 436.711 363.339 439.591 367.046 439.516C370.101 439.452 371.438 437.474 372.123 435.287C373.454 439.861 379.366 440.111 381.099 435.606C381.872 433.79 381.84 431.718 382.07 429.811C383.305 419.351 385.883 408.897 385.143 398.362C385.922 398.132 386.601 397.615 386.931 396.753C401.69 357.958 414.825 316.44 405.244 275.503C395.664 235.395 369.719 190.496 320.69 179.123C310.764 176.946 300.681 176.208 290.507 175.646C289.039 173.181 288.089 170.377 287.898 167.586C287.838 166.78 287.883 165.982 287.886 165.176C287.889 164.432 287.523 163.544 287.694 162.848C287.735 162.679 287.47 162.623 287.399 162.779C287.183 163.268 286.743 163.513 286.445 163.925C285.704 165.09 285.508 166.472 285.312 167.773C284.568 172.911 286.288 178.199 289.914 182.298L290.115 182.53C291.255 183.829 293.227 185.815 295.262 184.774C297.192 183.784 295.876 181.743 294.731 180.711C293.21 179.34 291.935 177.874 290.899 176.275C295.502 177.34 300.07 178.512 304.66 179.622L304.988 179.777C308.58 181.461 313.808 183.285 313.341 187.453C303.783 212.482 261.5 218.914 235.367 212.938C230.229 211.749 225.037 209.818 221.541 206.216L221.4 206.069C215.359 199.863 215.822 189.609 223.386 184.513C227.879 181.32 234.086 179.624 239.691 178.519C238.061 180.868 234.455 182.526 233.8 185.309C233.631 186.263 234.239 187.172 235.453 187.192C238.534 187.243 240.807 184.388 242.424 182.469C245.8 178.455 247.715 173.602 248.124 168.658C248.328 166.253 247.817 164.086 247.123 161.791ZM297.08 703.281C297.001 704.797 297.857 706.497 299.937 706.428C301.45 708.13 303.719 709.247 305.823 710.343C319.727 716.952 337.214 717.241 351.937 712.497C355.912 711.19 359.747 709.56 363.286 707.505L363.617 707.314C365.399 706.292 367.451 705.24 368.717 703.76L368.673 704.973C368.609 706.692 368.497 708.278 367.866 709.882C367.48 710.576 366.713 710.957 365.989 711.358C364.375 712.252 362.71 713.078 361.007 713.841C343.258 721.646 320.447 722.855 302.617 714.646C297.499 712.152 295.334 708.209 297.08 703.281ZM280.519 686.717C280.53 686.907 280.749 687.063 280.973 687.006C282.753 686.559 281.684 689.93 281.575 690.476C281.218 692.256 280.991 694.047 280.763 695.846L280.759 696.188C280.701 699.764 280.291 699.79 276.165 700.479C272.733 701.246 269.329 702.121 265.912 702.943L264.546 703.268C263.089 703.63 256.401 705.656 256.467 703.222L256.471 703.145C256.602 701.551 254.219 700.895 252.991 701.842L252.944 701.879C250.578 703.832 247.201 703.995 244.113 704.334L243.959 704.351C240.01 704.793 236.043 705.151 232.073 705.428C211.187 706.874 190.089 706.038 169.454 702.886L168.112 702.679C166.311 702.396 163.725 701.943 161.648 701.078C160.854 701.02 156.824 699.323 156.972 698.591C156.902 698.482 156.839 698.372 156.786 698.261C155.997 697.518 156.023 695.953 157.057 695.364C158.78 695.755 160.502 696.138 162.232 696.508L162.234 696.513C163.981 697.681 166.368 697.679 168.477 698.085C170.755 698.438 173.037 698.77 175.321 699.085C188.409 700.87 201.609 702.133 214.847 702.67C238.265 704.44 261.18 697.966 280.519 686.717ZM356.701 370.452C355.296 373.448 356.302 377.322 357.335 380.415C355.744 381.184 354.651 382.5 353.292 383.519C348.574 386.824 343.772 390.047 339.047 393.348L338.845 393.487C337.454 394.433 335.915 395.37 335.36 396.902C334.061 401.939 341.722 403.312 346.036 402.953C346.836 402.924 349.127 402.469 349.676 402.948C349.992 403.224 349.862 404.462 349.888 404.831C350.189 408.83 350.432 412.834 350.757 416.833L350.883 418.332C351.146 421.364 351.152 424.787 352.533 427.665C352.831 429.4 353.664 431.152 353.867 432.869C354.053 434.401 354.469 436.085 355.65 437.229L354.559 444.685C352.505 458.668 350.334 472.648 346.951 486.441C346.193 489.537 345.148 492.528 344.18 495.575C341.39 504.365 336.151 512.322 331.526 520.449L331.348 520.766C329.791 523.568 328.76 526.254 329.062 529.442C329.247 531.399 332.789 531.412 332.604 529.442C332.477 528.117 332.633 526.899 332.963 525.735C340.311 551.299 345.652 577.26 348.41 603.508C349.522 614.319 350.336 625.106 351.816 635.896C348.017 635.865 344.195 636.187 340.532 636.745C334.238 635.165 326.725 635.673 321.039 638.503C317.529 638.823 314.034 639.235 310.558 639.77L309.814 639.887C308.193 640.148 305.835 640.168 304.566 641.189C304.069 639.169 302.371 637.734 300.876 636.221C299.513 634.793 298.229 633.317 297.012 631.797C293.663 627.652 290.887 623.185 288.538 618.557C288.571 617.83 288.219 617.252 287.668 616.845C278.14 597.839 272.227 577.659 266.98 557.496C254.933 512.202 244.584 466.537 238.372 420.343C238.345 420.13 237.988 420.12 237.985 420.343C236.72 454.559 243.562 488.45 251.817 521.782C260.255 554.719 266.799 588.396 282.272 619.56C281.131 625.919 279.774 632.246 277.998 638.498C260.671 634.456 242.634 632.9 224.724 633.511C217.018 614.406 212.081 594.458 212.482 574.147C213.363 538.816 200.41 505.089 186.508 472.334C176.91 447.085 165.228 421.75 163.949 394.906C163.355 388.688 161.166 382.415 162.627 376.173C165.254 378.928 169.014 380.937 172.695 382.416C178.873 384.897 185.49 386.422 192.117 387.693C225.909 395.197 261.403 395.188 295.283 388.068L297.801 387.565C317.964 383.522 338.415 379.009 356.701 370.452ZM358.941 384.086C363.333 391.023 372.506 395.293 381.247 396.843C381.566 397.749 382.563 398.337 383.653 398.473C381.972 410.016 379.248 421.437 377.796 433.007L377.713 433.438C377.567 434.172 377.358 434.958 376.716 435.458C375.844 435.156 375.829 433.901 375.721 433.207C375.38 429.197 374.977 425.189 374.579 421.182C374.42 419.429 371.102 418.754 370.78 420.737L369.364 429.505L369.34 429.596C368.996 431.022 368.884 435.945 367.275 436.159L367.221 436.164C366.226 436.295 366.605 434.557 366.607 433.928L366.515 429.374L366.401 423.513C366.381 422.536 366.361 421.56 366.338 420.583C366.285 418.429 362.796 418.524 362.554 420.583L362.45 421.454C361.97 425.394 361.317 429.569 359.077 433.033C358.658 432.785 358.074 432.723 357.527 432.851C357.339 430.268 356.696 427.805 355.509 425.442C355.856 422.929 355.533 420.248 355.388 417.825L355.373 417.567C355.201 414.452 354.985 411.339 354.78 408.226L354.658 406.358C354.484 403.644 354.753 400.202 351.205 399.059C347.742 398.119 343.814 399.672 340.502 398.063C344.376 395.069 348.345 392.326 352.3 389.421C353.711 388.4 355.187 387.415 356.53 386.322C357.38 385.634 358.065 384.757 358.941 384.086ZM353.527 273.917L354.708 279.202C356.672 288.01 358.561 296.829 359.746 305.75C360.987 315.339 361.311 324.981 360.785 334.618C358.079 325.286 351.747 317.08 348.792 307.83C345.769 296.339 352.567 285.277 353.527 273.917ZM43.2282 206.946C43.3915 206.849 43.3015 206.561 43.0807 206.639C34.7039 209.652 31.2844 220.441 37.5903 226.383C39.6833 228.299 42.8209 229.407 45.6781 228.402C49.1495 227.892 51.194 224.879 51.6747 222.071L51.6906 221.975C51.7212 221.843 51.5504 221.782 51.4537 221.866L51.4365 221.883C50.1097 223.302 48.0182 224.252 46.1117 224.979C45.5778 224.728 44.993 224.528 44.4059 224.41C43.5706 224.247 42.7147 224.815 42.7943 225.554C38.8512 224.928 37.2708 220.856 37.1508 217.767L37.1476 217.674C36.9885 213.399 39.2169 209.446 43.2282 206.946Z" fill="black"/>
<path fill-rule="evenodd" clip-rule="evenodd" d="M295.038 52.838C276.438 51.9578 259.959 47.428 246.867 57.566C246.867 57.566 225.686 43.8558 222.152 49.0775C219.784 52.5764 223.068 57.2735 222.188 61.5911C216.446 70.0752 216.771 84.4355 216.446 87.8008C215.628 96.2831 210.474 128.202 210.474 135.782C210.474 139.651 214.154 149.783 216.446 155.422C221.547 167.973 231.285 174.37 247.253 174.37C263.222 174.37 289.286 162.801 297.645 152.529C298.378 151.629 303.116 154.255 308.071 149.7C313.439 144.765 316.417 135.351 316.417 129.74C316.417 122.62 321.726 117.682 321.108 108.567C319.729 88.2124 314.94 53.7797 295.038 52.838Z" fill="white"/>
<path fill-rule="evenodd" clip-rule="evenodd" d="M297.116 29.1724C296.874 29.1596 296.629 29.1699 296.384 29.1906C296.115 29.2008 295.847 29.2236 295.578 29.2699C294.212 29.4973 292.993 30.1242 292.048 31.0069C292.021 31.0299 292.001 31.0557 291.977 31.0785C291.534 31.3676 291.124 31.6953 290.755 32.043C290.69 31.9893 290.628 31.9358 290.56 31.8821C290.366 31.7335 290.162 31.5927 289.949 31.46C289.06 30.799 288.017 30.3184 286.894 30.045L286.741 30.009C286.711 30.0014 286.682 29.9962 286.652 29.9911C285.855 29.7611 285.017 29.6434 284.173 29.6457C283.164 29.6176 282.151 29.7611 281.207 30.0986C280.088 30.5005 279.114 31.1348 278.296 31.8975C277.759 32.2761 277.29 32.6929 276.794 33.1511C275.77 34.1001 274.961 35.2105 274.45 36.4337C274.379 36.6051 274.317 36.7814 274.261 36.9579C273.013 36.8328 271.758 36.7432 270.504 36.6995C269.096 36.6256 267.688 36.5997 266.277 36.6409C262.39 36.7507 258.588 37.3445 254.907 38.4319C254.169 38.6209 253.452 38.8614 252.762 39.1582C251.678 39.5318 250.654 40.0076 249.689 40.5833L248.867 41.006C248.454 41.2187 248.041 41.4342 247.64 41.6553C246.687 42.1852 245.784 42.7785 244.928 43.4181C244.025 44.0503 243.172 44.7385 242.36 45.4598C242.139 45.655 241.927 45.8528 241.717 46.0518C239.846 46.9271 238.184 48.0477 236.633 49.3843C235.404 48.7712 234.131 48.2155 232.817 47.7215C231.462 47.2123 229.742 46.6879 228.322 46.3427C227.047 46.0331 225.786 45.8208 224.508 45.6645C223.927 45.5775 223.342 45.5084 222.755 45.4495L222.779 45.4575C222.365 45.4188 221.955 45.3856 221.539 45.3549L221.551 45.3523C221.374 45.3398 221.194 45.3267 221.016 45.3165L220.586 45.2861C220.456 45.2758 220.267 45.5391 220.255 45.6312L220.24 45.7259C220.143 45.8208 220.054 45.9257 219.992 45.9896C219.916 45.9843 219.839 45.9794 219.762 45.9766C219.532 45.9589 219.266 46.3143 219.13 46.4499L219.008 46.5749C218.868 46.7207 218.728 46.8886 218.705 47.0716C218.555 48.1337 218.413 49.1977 218.283 50.2621C218.233 51.068 218.283 51.8662 218.437 52.6568C218.552 53.4244 218.67 54.1919 218.788 54.9569C218.977 55.4944 219.163 56.0317 219.349 56.5688C219.423 56.7737 219.505 56.9756 219.585 57.1777C220.057 58.5275 220.61 59.8416 221.269 61.1149C220.789 61.576 220.34 62.0539 219.923 62.5474C219.823 62.6362 219.723 62.7245 219.629 62.8166C219.603 62.781 219.564 62.7478 219.523 62.7296C219.381 62.6759 219.278 62.7398 219.189 62.845C218.26 63.6148 217.584 64.5131 217.165 65.5388L216.904 66.0738C216.86 66.1632 216.817 66.2527 216.775 66.3422C216.441 67.1202 216.185 67.9185 215.972 68.7267C215.782 69.3628 215.646 70.0075 215.558 70.6591C214.92 72.5148 214.416 74.4132 213.94 76.286C213.866 76.5808 213.901 76.8438 214.01 77.0679L213.732 77.3028L213.257 77.7129C212.459 78.4026 211.644 79.1276 211.052 79.9483C210.438 80.8002 209.986 81.7111 209.484 82.6145L209.376 82.8064L209.155 83.1912C208.916 83.6113 208.802 83.8435 208.59 84.3514C208.239 85.1985 208.05 86.0503 207.961 86.9486C207.831 88.2557 207.849 89.6808 208.51 90.896C208.513 90.9063 208.519 90.9142 208.525 90.9216C208.826 92.0962 209.57 93.1859 210.7 93.8818C210.942 94.0791 211.202 94.2556 211.48 94.3961C212.146 94.735 212.757 94.7653 213.484 94.6085L213.575 94.588C213.667 94.5675 213.749 94.5496 213.829 94.5342C213.711 94.6187 213.652 94.7187 213.829 94.7901C214 94.8617 214.154 94.9026 214.299 94.918C214.237 94.9871 214.231 95.0613 214.36 95.1227C214.644 95.2532 214.874 95.2944 215.11 95.2583L215.061 95.614C214.673 98.3055 214.327 98.8378 214.024 101.729C213.823 104.689 213.505 107.641 213.065 110.581L212.913 111.65C212.428 115.035 211.882 118.446 211.046 121.777C210.624 123.233 210.261 124.699 209.954 126.175C209.52 127.298 209.216 128.447 209.048 129.619C208.803 130.811 208.634 132.014 208.537 133.226C208.197 134.002 208.032 134.79 208.041 135.593C207.997 136.673 208.038 137.75 208.171 138.822C208.245 139.937 208.422 141.043 208.702 142.138C208.953 143.64 209.411 145.09 210.066 146.497C210.591 148.068 211.235 149.609 211.967 151.115C213.103 153.449 214.476 155.616 216.037 157.752C217.501 159.755 219.071 161.684 220.866 163.478C223.186 165.796 225.831 167.919 228.729 169.71C230.382 170.77 232.127 171.721 233.951 172.535C236.182 173.533 238.449 174.431 240.866 175.037C242.375 175.416 243.91 175.677 245.462 175.877C248.511 176.268 251.669 176.209 254.736 175.751C256.714 175.521 258.659 175.122 260.498 174.551C262.009 174.081 263.449 173.54 264.89 172.932C265.631 172.622 266.345 172.264 267.03 171.862C268.181 171.215 269.258 170.483 270.262 169.675C270.59 169.432 270.908 169.183 271.221 168.922C271.372 168.807 271.289 168.636 271.115 168.595L271.062 168.59C271.13 168.536 271.201 168.482 271.268 168.426C271.283 168.416 271.295 168.403 271.307 168.39C271.339 168.365 271.375 168.339 271.404 168.314C271.519 168.227 271.404 168.032 271.304 167.986C271.265 167.968 271.215 167.966 271.159 167.971C271.171 167.96 271.18 167.953 271.192 167.945C271.203 167.937 271.206 167.917 271.203 167.896L271.248 167.866C271.398 167.751 271.322 167.582 271.144 167.538C271.058 167.516 270.915 167.527 270.767 167.555L270.711 167.566L270.811 167.485C270.988 167.351 270.932 167.203 270.713 167.157C270.551 167.165 270.39 167.185 270.23 167.219L270.111 167.247C270.052 167.259 269.996 167.275 269.937 167.29C270.038 167.211 270.138 167.134 270.235 167.055C270.333 166.981 270.229 166.768 270.141 166.725C270.02 166.666 269.784 166.748 269.674 166.817C269.406 166.843 269.052 166.945 268.922 167.042C268.565 167.339 268.196 167.623 267.821 167.899C267.594 167.96 267.378 168.042 267.213 168.165C266.788 168.518 266.345 168.851 265.893 169.173L265.55 169.378C265.493 169.412 265.435 169.445 265.377 169.478C264.728 169.808 264.078 170.135 263.432 170.465C261.062 171.161 258.691 171.857 256.324 172.551L256.011 172.632L253.712 172.878C252.201 173.016 250.687 173.009 249.175 172.857C248.042 172.87 246.917 172.773 245.81 172.573C243.93 172.297 242.085 171.891 240.291 171.322C238.225 170.67 236.256 169.81 234.334 168.884C233.644 168.549 232.965 168.193 232.298 167.817C232.082 167.684 231.867 167.548 231.651 167.41C230.232 166.487 228.874 165.502 227.566 164.46C226.952 163.972 226.362 163.463 225.792 162.936C225.71 162.859 225.63 162.785 225.55 162.708C225.004 162.191 224.476 161.657 223.971 161.104L223.49 160.633C221.548 158.538 219.821 156.284 218.268 153.963C216.728 151.663 215.459 149.242 214.449 146.738C214.124 145.845 213.841 144.939 213.605 144.023C213.168 142.923 212.882 141.795 212.749 140.644C212.705 140.418 212.669 140.193 212.634 139.968L212.613 139.613C212.61 139.554 212.608 139.495 212.607 139.436C212.548 139.078 212.498 138.719 212.46 138.361C212.436 138.001 212.421 137.64 212.418 137.279L212.451 135.066C212.46 134.997 212.468 134.925 212.474 134.854L212.539 134.365C212.681 133.357 212.79 132.346 212.932 131.338C212.932 131.333 212.932 131.325 212.935 131.318C212.988 130.942 213.044 130.563 213.109 130.184C213.141 129.959 213.183 129.734 213.221 129.509L213.295 129.115C213.432 128.43 213.598 127.751 213.8 127.077L213.888 126.789L214.402 124.55L214.98 122.348C215.355 120.871 215.668 119.385 215.916 117.886C216.365 115.496 216.748 113.104 217.082 110.701C217.1 110.586 217.117 110.469 217.132 110.353C217.472 108.125 217.717 105.889 217.876 103.645C218.091 101.435 218.215 99.2188 218.248 97.0009C218.251 96.9008 218.174 96.8192 218.083 96.7729L218.091 96.3465C218.102 95.9692 218.109 96.4218 218.113 95.9917L218.119 94.8087C218.118 94.7101 218.117 94.6414 218.115 94.6366C219.692 94.7311 220.753 94.6536 222.275 94.5841L222.534 94.5726C223.93 94.5166 225.317 94.3835 226.695 94.1837C226.701 94.2454 226.749 94.2886 226.828 94.3014C226.97 94.3065 227.103 94.3065 227.239 94.3093L227.188 94.4754C227.185 94.5601 227.23 94.6135 227.324 94.6366L227.718 94.6519C228.244 94.6711 228.771 94.6801 229.293 94.6187C229.762 94.5652 230.22 94.4703 230.674 94.3577C230.955 94.3167 231.241 94.2607 231.533 94.1888C232.283 94.0021 233.027 93.7513 233.779 93.552C234.547 93.411 235.326 93.3652 236.141 93.5339C237.003 93.7104 237.732 94.0302 238.635 93.8358C238.815 93.7976 238.989 93.7388 239.163 93.6771L239.324 93.6674C239.352 93.6653 239.38 93.6627 239.408 93.6592C240.35 93.5418 241.188 93.025 242.085 92.7484C242.399 92.6823 242.71 92.699 243.013 92.8088L243.089 92.8382L243.387 93.0301C243.507 93.1527 243.626 93.2766 243.743 93.4009L243.918 93.5876C244.24 93.933 244.582 94.2426 244.999 94.4677C245.5 94.8694 246.097 95.1048 246.808 95.1201C247.212 95.1304 247.614 95.0562 248.003 94.949C249.473 95.343 251.047 95.4223 252.514 95.0385C253.095 94.9615 253.665 94.8261 254.211 94.6135C254.468 94.5138 254.724 94.3961 254.972 94.2656C256.008 94.6445 256.988 95.1483 257.989 95.5835L258.214 95.6816C259.237 96.123 260.368 96.5535 261.525 96.4892C262.983 96.407 264.415 96.2384 265.843 96.0258C265.855 96.0258 265.87 96.0233 265.882 96.0207L266.078 95.9923L266.793 95.8837L267.369 95.7907L267.664 95.8885C270.03 96.6644 272.622 97.2697 274.999 96.7269C276.035 96.6171 277.006 96.3149 277.883 95.8007C277.913 95.7828 277.942 95.7649 277.972 95.7444C278.11 95.683 278.24 95.6142 278.355 95.54L278.38 95.5232L278.403 95.5065L278.414 95.5013C279.71 94.9848 280.454 93.8844 280.324 92.6514C280.404 92.2597 280.401 91.876 280.312 91.4669C280.734 91.899 281.165 92.3265 281.602 92.751C283.2 94.4187 284.765 96.1198 286.214 97.8907L286.546 98.3006C287.343 99.2751 288.084 100.283 288.769 101.322C289.462 102.348 290.174 103.364 290.909 104.367C291.864 105.282 292.788 106.219 293.679 107.18L294.058 107.593L295.339 109.054C296.245 109.985 296.998 111.004 297.591 112.109C298.078 112.894 298.527 113.695 298.931 114.516C299.061 114.764 299.185 115.015 299.306 115.266C299.722 116.246 300.074 117.244 300.348 118.274C300.569 119.021 300.727 119.777 300.821 120.544L300.85 120.8C300.885 121.102 300.912 121.404 300.927 121.705C300.841 121.749 300.77 121.792 300.717 121.836L300.502 121.903L300.327 121.947C300.056 122.021 299.587 122.172 299.699 122.358L300.268 123.3C300.209 123.353 300.183 123.409 300.221 123.471C300.602 124.103 300.986 124.735 301.369 125.367C301.381 125.39 301.402 125.408 301.422 125.421C301.095 125.551 300.776 125.694 300.472 125.85C299.879 126.157 299.442 126.513 299.038 126.927C298.613 127.148 298.211 127.388 297.833 127.664C297.367 128.089 296.96 128.555 296.614 129.059C296.295 129.534 296.036 130.031 295.835 130.55C295.746 130.824 295.705 131.108 295.708 131.397C296.065 133.582 298.949 132.085 299.005 131.893C299.401 130.573 299.855 129.739 300.876 128.757L300.903 128.741C301.493 128.516 302.078 128.294 302.689 128.12C302.78 128.135 302.875 128.145 302.969 128.158C302.863 128.289 302.916 128.417 303.131 128.439C304.061 128.598 305 128.641 305.944 128.572L307.379 128.396C307.974 128.594 308.543 128.848 309.079 129.15L309.256 129.253L309.289 129.273C310.673 130.238 311.741 131.52 312.473 132.917C312.538 133.041 312.601 133.167 312.66 133.294L312.748 133.485L312.754 133.495C313.71 136.752 312.857 140.329 311.11 143.284C310.156 144.606 309.162 145.904 308.123 147.175L307.113 148.319C306.517 148.805 305.933 149.304 305.363 149.816C305.274 149.893 305.18 149.969 305.085 150.043C304.784 150.215 304.477 150.366 304.165 150.494C304.044 150.529 303.92 150.563 303.796 150.591C303.193 150.842 302.562 150.975 301.898 150.99C301.021 151.041 300.169 150.951 299.346 150.725L299.182 150.678L299.061 150.639C298.613 150.391 298.196 150.082 297.801 149.718C297.712 149.639 297.547 149.639 297.358 149.683C297.255 149.59 297.151 149.493 297.054 149.388C296.986 149.324 296.88 149.322 296.797 149.37C296.517 149.343 295.758 149.716 295.956 149.913C295.988 149.959 296.03 150 296.065 150.043C295.932 150.102 295.8 150.169 295.682 150.238C295.062 150.387 294.146 150.923 294.22 151.084L294.229 151.097C294.373 151.332 294.559 151.53 294.789 151.686L294.867 151.737L295.041 151.842C294.796 151.975 294.589 152.128 294.693 152.236C294.74 152.315 294.79 152.392 294.849 152.461C294.347 152.999 293.849 153.541 293.353 154.083C292.857 155.015 292.243 155.884 291.511 156.69C290.9 157.565 290.165 158.351 289.306 159.052C289.235 159.113 289.161 159.172 289.09 159.231C288.458 159.636 287.796 160.016 287.106 160.381L286.809 160.536C286.652 160.618 286.39 160.72 286.514 160.917C286.528 160.942 286.546 160.963 286.567 160.978C286.133 161.224 285.684 161.457 285.221 161.672L285.177 161.695C285.002 161.792 284.764 161.968 285.014 162.112C285.227 162.234 285.791 161.902 286.056 161.748C286.106 161.748 286.165 161.736 286.224 161.721C286.136 161.761 286.049 161.806 285.96 161.849L285.826 161.912C285.723 161.966 285.215 162.258 285.569 162.381C285.743 162.393 285.903 162.355 286.05 162.268C286.224 162.194 286.396 162.115 286.564 162.032C286.505 162.112 286.505 162.191 286.652 162.242C286.703 162.245 286.753 162.242 286.803 162.237C286.455 162.429 286.097 162.608 285.729 162.777L285.669 162.809C285.513 162.897 285.264 163.063 285.445 163.207C285.649 163.365 286.21 163.028 286.354 162.951L286.785 162.728C286.818 162.741 286.853 162.746 286.891 162.749C286.762 162.818 286.641 162.892 286.508 162.959L286.327 163.044C286.101 163.152 285.781 163.33 285.897 163.509C286.013 163.685 286.357 163.54 286.579 163.426L286.818 163.297C286.829 163.292 286.839 163.286 286.85 163.281L286.859 163.312C286.861 163.317 286.864 163.322 286.868 163.327C286.979 163.494 287.257 163.385 287.449 163.288L287.603 163.207C287.865 163.07 288.124 162.935 288.381 162.799L288.766 162.593H288.772C290.103 161.899 291.334 161.209 292.494 160.318C293.187 159.786 293.834 159.223 294.448 158.622C295.682 157.417 296.599 156.038 297.485 154.631C297.5 154.608 297.479 154.549 297.444 154.485C297.541 154.311 297.636 154.134 297.73 153.953C298.639 154.173 299.654 154.237 300.59 154.183C301.092 154.155 301.588 154.078 302.081 153.963C303.654 153.774 305.171 153.152 306.482 152.407C306.564 152.361 306.638 152.31 306.715 152.264C307.255 152.001 307.769 151.694 308.256 151.343C309.206 150.662 310.112 149.905 310.936 149.115C311.532 148.501 312.096 147.863 312.624 147.203C313.161 146.551 313.704 145.899 314.247 145.246C315.756 143.199 316.721 140.843 317.096 138.435C317.279 137.548 317.373 136.65 317.353 135.754C317.338 135.107 317.255 134.452 317.111 133.8C317.196 133.728 317.282 133.656 317.367 133.582C317.415 133.654 317.462 133.705 317.491 133.679L318.168 133.092C318.648 132.673 318.97 132.364 319.522 131.686C320.402 130.604 321.057 129.414 321.544 128.161C321.895 127.265 322.128 126.247 322.22 125.262C322.249 125.098 322.279 124.932 322.302 124.763C322.491 123.43 322.317 122.153 322.084 120.838C322.069 120.751 322.019 120.698 321.951 120.669C321.934 120.565 321.914 120.458 321.894 120.351C323.849 118.557 325.256 116.395 325.141 113.784C325.105 112.961 324.91 112.15 324.538 111.393L324.493 111.307C326.125 111.09 327.42 110.096 328.392 108.865C328.479 108.805 328.562 108.746 328.642 108.687C330.381 107.399 331.587 105.576 332.413 103.651C333.004 102.533 333.396 101.338 333.562 100.098C333.574 100.01 333.581 99.9222 333.59 99.8341C333.994 97.8746 334.096 95.8953 333.91 93.9455C334.315 92.7387 334.645 91.5106 334.871 90.2539C334.977 89.6554 335.051 89.0565 335.107 88.4578L335.113 88.4248L335.122 88.3171L335.146 88.0485C335.15 88.0041 335.154 87.9598 335.157 87.9154C335.656 82.4351 334.242 77.0418 331.904 71.9658C331.701 71.5093 331.49 71.0539 331.273 70.6022L331.043 70.1303C328.697 66.8503 325.173 64.1974 322.189 61.3956C321.159 60.429 322.824 58.9778 323.858 59.9483C325.841 61.8098 327.968 63.5928 329.889 65.5063C330.228 65.5278 330.568 65.5358 330.907 65.5212C331.497 65.4953 332.07 65.4137 332.624 65.283C334.009 65.1064 335.269 64.6229 336.414 63.9116C337.946 63.2927 339.254 62.1258 339.384 60.6035C339.398 60.45 339.396 60.299 339.384 60.1483C339.525 59.4036 339.398 58.6235 339.038 57.9043C338.976 57.7073 338.897 57.5128 338.796 57.3209C338.504 56.7504 338.023 56.2031 337.436 55.8319C337.421 55.8242 337.409 55.8194 337.397 55.8114C337.335 55.7554 337.276 55.6989 337.208 55.648C337.108 55.5684 337.002 55.4944 336.89 55.4254C337.288 54.8571 337.648 54.274 337.955 53.6521C338.289 52.9766 338.46 52.2912 338.554 51.5669C338.593 51.2803 338.607 50.9964 338.613 50.7126C338.631 50.5819 338.643 50.4488 338.655 50.3158C338.728 49.3026 338.593 48.2513 338.156 47.3045C338.123 47.2331 338.082 47.1612 338.044 47.087C337.961 46.8721 337.87 46.6574 337.757 46.4474C337.321 45.6414 336.701 44.9583 335.936 44.398C335.523 44.0373 335.06 43.7174 334.555 43.4462C334.257 43.2851 333.917 43.1418 333.56 43.0241C332.923 42.7324 332.105 42.4663 331.441 42.4461C331.361 42.4433 331.29 42.4512 331.214 42.4512C331.152 40.9824 330.933 39.3834 330.263 38.0529C329.873 37.0886 329.289 36.2316 328.409 35.6147C327.899 35.1532 327.271 34.7784 326.486 34.5334L326.346 34.4915L326.293 34.4787C325.588 34.1819 324.826 34.0643 324.044 34.0671C323.132 34.0259 322.202 34.1745 321.408 34.5376C321.243 34.6143 321.066 34.709 320.898 34.8113C320.771 34.5913 320.629 34.3687 320.467 34.1464C319.897 33.3555 319.209 32.6673 318.412 32.0405C318.318 31.9663 318.214 31.8998 318.114 31.8284C317.727 31.5239 317.317 31.2425 316.892 30.9866C315.974 30.4338 314.968 30.0221 313.911 29.7557C312.691 29.365 311.404 29.1836 310.116 29.2218L309.849 29.2315C309.79 29.2364 309.731 29.2389 309.675 29.2415C308.397 29.3134 307.137 29.5846 305.933 29.9937C304.684 30.4212 303.627 31.0683 302.644 31.8102C302.414 31.5342 302.152 31.2729 301.83 31.0273C301.738 30.9585 301.641 30.8968 301.549 30.8329C301.479 30.7715 301.405 30.7126 301.328 30.6538C300.977 30.3851 300.605 30.1523 300.198 29.9451C299.74 29.7125 299.247 29.5513 298.736 29.4515C298.217 29.2978 297.671 29.2031 297.116 29.1724ZM303.181 134.646C303.129 134.644 300.395 135.532 299.033 136.107L298.966 136.135C297.396 136.811 296.64 137.297 295.23 138.164C295.135 138.223 295.038 138.313 295.038 138.4C295.038 139.663 295.392 141.207 296.617 140.523C296.794 140.424 296.972 140.328 297.152 140.232L297.423 140.091L297.431 140.093C297.429 140.093 297.426 140.091 297.423 140.088C300.091 138.678 302.91 137.573 305.885 136.783C306.089 136.719 304.58 134.743 304.164 134.854C304.403 134.772 303.221 134.648 303.181 134.646ZM275.146 78.8494C276.921 79.0139 278.695 79.1759 280.469 79.3342C281.6 79.4468 282.733 79.5466 283.866 79.631C285.569 79.7413 287.273 79.7589 288.97 79.5568C289.572 79.4854 290.162 79.3829 290.747 79.2575C291.145 79.5108 291.558 79.7487 291.98 79.9767L296.668 83.085C299.811 85.2267 302.887 87.4958 305.655 90.0006C310.491 94.3766 314.429 99.4962 316.905 105.167C317.13 105.282 317.304 105.482 317.361 105.79C317.799 108.114 319.078 110.234 319.54 112.549C319.996 114.829 319.39 116.767 317.738 118.575C317.385 118.961 316.663 118.94 316.219 118.68C316.116 118.855 315.67 118.848 315.513 118.072C314.778 117.383 314.15 116.66 313.724 115.765C313.411 115.106 313.938 114.649 314.577 114.559C314.312 113.73 314.012 112.909 313.675 112.096C312.677 109.681 311.408 107.373 309.811 105.209C308.406 103.305 306.78 101.647 305.033 99.9838C305.012 99.9608 304.977 99.9534 304.938 99.9483L304.575 99.6001C304.525 99.5515 304.422 99.5566 304.307 99.5822C304.197 99.4824 304.091 99.38 303.979 99.2803C303.87 99.1779 303.749 99.2086 303.681 99.2905C303.495 99.2547 303.155 99.4286 303.052 99.4852C302.875 99.5873 302.819 99.7024 302.969 99.8482C302.996 99.8741 303.023 99.8997 303.049 99.9224C302.846 99.9969 302.645 100.096 302.488 100.194C301.942 100.299 301.175 100.739 301.308 100.869C301.588 101.122 301.86 101.381 302.128 101.644C301.892 101.788 301.739 101.928 301.801 101.99C302.952 103.041 304.014 104.154 304.988 105.334C305.729 106.214 306.399 107.13 306.999 108.084C307.89 109.435 308.646 110.824 309.316 112.252C309.41 112.47 309.502 112.687 309.59 112.904C310.57 115.281 311.302 117.747 311.612 120.26L311.625 120.429C311.683 121.334 311.705 123.758 311.813 124.336C311.16 124.614 310.481 124.852 309.776 125.047C309.643 125.08 309.507 125.111 309.372 125.139C309.295 125.111 309.215 125.088 309.135 125.067C308.486 124.84 307.807 124.676 307.114 124.597C306.646 124.543 306.181 124.524 305.716 124.536L305.517 124.543C305.31 124.548 305.106 124.561 304.9 124.579C304.912 124.476 304.918 124.377 304.926 124.274C304.985 124.241 305.03 124.195 305.033 124.133C305.171 122.982 305.174 121.831 305.042 120.679C304.953 120.078 304.85 119.48 304.738 118.881C304.622 118.39 304.49 117.906 304.345 117.423C303.961 116.067 303.451 114.744 302.831 113.449C301.066 109.757 298.536 106.429 295.992 103.118C294.135 100.7 292.379 98.2287 290.457 95.8519C288.822 93.8281 287.104 91.835 285.271 89.9417C283.441 88.0513 281.508 86.2319 279.421 84.5487C279.085 84.2798 278.745 84.0188 278.4 83.7607C276.422 82.2256 274.274 80.964 272.036 79.7259C271.951 79.6773 271.797 79.7311 271.67 79.8229L271.309 79.6306C271.249 79.5986 271.188 79.5671 271.127 79.5364C271.071 79.5059 271.009 79.5568 270.977 79.6003C270.823 79.5312 270.67 79.465 270.516 79.3982C270.404 79.3199 270.289 79.2457 270.176 79.1684C271.835 79.096 273.492 78.9886 275.146 78.8494ZM254.338 61.7932C255.678 61.5606 257.024 61.5271 258.376 61.7011C258.942 61.773 259.506 61.8595 260.065 61.9641C258.796 62.9235 257.775 64.1514 257.112 65.5644C256.396 67.0918 259.252 67.7501 259.958 66.2447C260.639 64.7925 261.928 63.6786 263.485 63.0108C263.822 63.1738 264.148 63.3503 264.459 63.5458C264.867 63.8323 265.25 64.1419 265.61 64.4822C266.396 65.2218 267.116 66.2092 267.588 67.1865C267.771 67.7187 267.907 68.2662 267.992 68.8291C268.01 68.957 268.028 69.0875 268.043 69.2179C268.334 71.8657 267.46 74.4419 265.957 76.7215L265.898 76.7223C264.557 76.0919 263.153 75.5607 261.708 75.1281C260.551 74.4529 259.35 73.8284 258.113 73.2629C255.484 72.0606 252.707 71.1338 249.846 70.5L249.515 70.4281C248.841 70.2789 248.161 70.1474 247.478 70.0323L247.068 69.9653H247.062L247.106 69.5838C247.337 68.0871 248.013 66.6978 248.886 65.4137C249.542 64.4441 250.53 63.4514 251.628 62.6582L251.634 62.6554C252.133 62.4098 252.657 62.2066 253.196 62.0387L253.399 61.9774L254.338 61.7932ZM290.318 59.519C293.105 59.291 295.891 59.314 298.677 59.511C300.498 59.6674 302.308 59.8846 304.108 60.1609C305.327 60.3425 306.523 60.5984 307.698 60.9159L307.026 62.0937C305.903 64.0553 304.752 66.0041 303.397 67.8568C302.697 68.8111 301.939 69.7197 301.112 70.5919C300.555 71.2161 299.941 71.7946 299.268 72.3265C299.091 72.5135 298.902 72.6901 298.71 72.8612C298.096 73.3167 297.435 73.7158 296.712 74.0458C296.132 74.412 295.526 74.7318 294.895 75.0122L294.657 75.1155L292.443 75.8521C292.325 75.8811 292.206 75.9101 292.086 75.9377L291.906 75.9777L291.57 76.0389L291.317 75.9201C291.275 75.9004 291.232 75.8811 291.189 75.8624C291.118 75.8293 291.068 75.8933 291.053 75.9391C291.047 75.9573 291.056 75.9826 291.071 76.0082L290.748 75.857C290.194 76.0522 289.605 76.2083 288.974 76.3111C288.688 76.3574 288.402 76.393 288.115 76.4234L288.077 76.4457C288.07 76.4496 288.064 76.4538 288.057 76.4587H287.744C285.537 76.6432 283.299 76.3994 281.096 76.0563C277.979 75.7846 274.862 75.485 271.746 75.2048C271.687 75.2 271.664 75.2227 271.664 75.2588L271.472 75.2435C271.194 75.2176 270.87 75.6193 271.079 75.7654C270.911 75.8521 270.749 75.9777 270.628 76.075L270.557 76.0696C270.985 75.343 271.315 74.5831 271.552 73.7928L271.853 72.4672C271.935 71.9734 271.983 71.4467 271.991 70.927C272.012 70.6891 272.027 70.4668 272.027 70.272C272.027 70.0878 272.024 69.9036 272.015 69.7197C272.602 69.5096 273.199 69.3257 273.807 69.1693C275.533 68.9854 277.257 68.8009 278.984 68.6193C280.02 68.6525 281.056 68.7165 282.089 68.8163C283.261 68.9058 284.43 69.0209 285.596 69.1591C285.705 69.1693 285.9 69.0414 286.018 68.893L286.517 68.9521C286.776 68.9803 287.048 68.5297 286.705 68.4376C286.581 68.395 286.457 68.3546 286.334 68.3158L286.148 68.2585L286.254 68.2687C286.289 68.2716 286.333 68.2636 286.384 68.2485C286.658 68.279 286.933 68.3097 287.204 68.3378C287.549 68.3751 287.47 67.9815 287.229 67.8889L287.113 67.8517C287.317 67.7414 287.496 67.4397 287.244 67.341L287.21 67.3298C287.092 67.2891 286.977 67.2556 286.859 67.2172C286.868 67.1842 286.868 67.1532 286.856 67.1254L287.343 67.1788C287.387 67.1839 287.176 66.9145 287.074 66.8612L287.057 66.8539L286.823 66.7925C286.788 66.7055 286.599 66.5136 286.534 66.496C285.678 66.2629 284.881 66.0533 284.049 65.8919C284.008 65.8484 283.96 65.8152 283.907 65.8049C283.388 65.6975 282.862 65.613 282.337 65.5417C282.302 65.4953 282.266 65.4623 282.225 65.4595C280.923 65.3162 279.618 65.283 278.308 65.36C278.057 65.3802 277.806 65.4035 277.555 65.4314C277.074 65.4777 276.593 65.5365 276.115 65.6158C274.917 65.794 273.747 66.0649 272.608 66.4302L272.346 66.5162C272.059 66.6085 271.776 66.7055 271.496 66.8107C271.354 66.3732 271.177 65.9431 270.967 65.5212C270.935 65.4391 270.899 65.36 270.861 65.2807L271.147 65.132C271.209 65.2344 271.336 65.3137 271.419 65.2705C273.47 64.0705 275.64 63.0699 277.927 62.2716C279.208 61.7804 280.519 61.3636 281.862 61.0154C282.532 60.8289 283.208 60.66 283.887 60.4989C284.226 60.4372 284.565 60.3758 284.911 60.3246C286.685 59.9102 288.488 59.6418 290.318 59.519ZM222.722 63.58C222.971 63.9531 223.23 64.3225 223.505 64.6868C224.839 66.4571 226.439 68.1183 228.253 69.5667C227.78 69.5656 227.308 69.5812 226.842 69.6191C226.038 69.6849 225.251 69.8005 224.484 69.9625C224.421 69.9192 224.352 69.8975 224.296 69.9318L224.096 70.0518C222.45 70.4368 220.904 71.0421 219.504 71.8532L219.529 71.693C219.533 71.6663 219.538 71.6396 219.544 71.6129C219.52 71.2982 219.514 70.9833 219.526 70.6712C219.815 68.8265 220.538 67.1276 221.365 65.4086C221.38 65.3753 221.369 65.3321 221.345 65.2881C221.762 64.6976 222.219 64.1265 222.722 63.58ZM222.342 49.0775C222.958 49.1747 223.569 49.3001 224.177 49.4561C225.32 49.6048 226.427 49.8658 227.495 50.2365C228.968 50.6893 230.397 51.2164 231.819 51.7744C234.582 52.8589 237.174 54.2305 239.532 55.8833C239.683 55.9829 239.827 56.0855 239.972 56.1878C240.5 56.5841 241.014 56.9986 241.501 57.4361C242.011 57.9171 242.525 58.3983 243.036 58.8816C243.661 59.4499 244.382 59.9639 244.948 60.5779C245.063 60.7033 245.164 60.8414 245.255 60.9798L244.922 61.0794C244.641 61.1612 244.688 61.6167 244.966 61.5501C245.06 61.5271 245.149 61.499 245.238 61.4685C245.199 61.512 245.173 61.5555 245.167 61.5936C245.149 61.7164 245.258 61.8856 245.432 61.8421C245.512 61.8239 245.592 61.7983 245.671 61.7702C245.695 61.8495 245.713 61.9288 245.713 62.0055C245.698 62.0107 245.683 62.0158 245.665 62.0186C245.471 62.0774 245.105 62.3407 245.052 62.5201C245.01 62.6582 245.146 62.8064 245.32 62.7654C245.45 62.7347 245.577 62.6887 245.701 62.6375C245.618 62.7068 245.553 62.781 245.547 62.845C245.536 62.9627 245.654 63.1287 245.816 63.0906C246.117 63.0187 246.359 62.909 246.56 62.7708C246.613 62.8319 246.69 62.8806 246.752 62.8655L246.867 62.8348C246.835 62.8602 246.806 62.8869 246.778 62.9133L246.737 62.9522C245.922 63.7146 245.211 64.5589 244.641 65.4674C244.615 65.4416 244.582 65.4186 244.541 65.3904C244.275 65.196 244.001 65.0067 243.726 64.8227L243.643 64.7598L243.558 64.6971L244.175 64.8736L244.161 64.8598C244.118 64.8114 243.982 64.6501 243.919 64.5963L243.903 64.5845C243.056 63.9272 242.132 63.3692 241.135 62.9141C240.488 62.5505 239.809 62.2435 239.098 61.9902C237.401 61.3071 235.671 60.788 233.894 60.307C233.629 60.2328 233.363 60.1535 233.097 60.0816C233.021 60.0585 233.006 60.0867 233.018 60.1327L232.879 60.0969C232.631 60.0278 232.209 60.4065 232.377 60.583C232.276 60.6547 232.176 60.7345 232.089 60.8094L232.026 60.8645L231.955 60.8465C231.744 60.7902 231.388 61.0751 231.162 61.277L230.996 61.4299C230.869 61.5476 230.621 61.7906 230.925 61.8856L231.306 61.9979C231.294 62.0644 231.326 62.1207 231.444 62.1591C231.577 62.1974 231.707 62.2384 231.837 62.2796C231.758 62.3391 231.681 62.401 231.605 62.4637L231.492 62.5582C231.358 62.6764 231.041 62.937 231.321 63.0521L231.356 63.0648L231.719 63.1773C231.672 63.2694 231.684 63.3567 231.843 63.4076C233.962 64.0319 236.031 64.7639 238.053 65.5954C239.567 66.3217 241.167 66.8644 242.853 67.2198C242.991 67.2584 243.292 67.0767 243.416 66.8951L243.668 66.9593C243.71 66.9699 243.752 66.9801 243.794 66.9895L243.835 66.9974C243.52 67.7266 243.286 68.5169 243.157 69.2819C243.142 69.351 243.13 69.4229 243.121 69.492C242.791 69.4687 242.463 69.4482 242.132 69.4331C239.845 69.3279 237.531 69.3919 235.237 69.6273C234.31 69.1489 233.419 68.6244 232.566 68.0566C232.306 67.8824 232.05 67.7033 231.796 67.5217C230.273 66.3755 228.894 65.0888 227.672 63.6993C226.542 62.4123 225.559 61.0308 224.732 59.5829C224 58.2241 223.395 56.8118 222.938 55.3535C222.519 54.0205 222.374 52.7233 222.268 51.3443C222.232 51.1192 222.209 50.8943 222.188 50.6689L222.19 50.5724L222.194 50.5256C222.223 50.0423 222.28 49.5585 222.342 49.0775ZM243.969 66.2117C244.037 66.2322 244.107 66.2527 244.178 66.2706C244.137 66.3499 244.099 66.4269 244.06 66.506L244.056 66.5044L243.777 66.3141C243.836 66.291 243.904 66.2555 243.969 66.2117ZM222.755 45.4496C222.224 45.2782 221.822 45.2449 221.551 45.3524C221.952 45.378 222.354 45.4112 222.755 45.4496Z" fill="black"/>
<path fill-rule="evenodd" clip-rule="evenodd" d="M227.4 149.882C228.374 150.986 230.138 151.832 232.113 152.236C233.995 152.621 236.076 152.605 237.871 152.013L238.025 151.959C239.367 151.476 240.655 150.501 241.144 149.482C241.339 149.078 241.405 148.666 241.272 148.282C241.152 147.937 240.871 147.619 240.404 147.346C240.257 147.26 240.06 147.254 239.872 147.283C239.64 147.318 239.41 147.413 239.272 147.54C238.504 148.248 237.389 148.938 236.071 148.926C235.053 148.917 234.222 148.569 233.416 148.175L232.85 147.894C232.304 147.624 231.749 147.37 231.123 147.254C230 147.047 228.639 147.426 227.81 148.052C227.448 148.325 227.185 148.646 227.114 148.992C227.054 149.282 227.138 149.585 227.4 149.882ZM233.234 130.577C231.006 131.751 227.609 134.49 230.007 137.401C232.83 139.968 236.893 137.025 238.896 135.694C240.753 134.662 242.839 137.315 241.116 138.52C226.646 147.806 220.774 130.884 232.107 129.196C233.355 129.01 233.818 130.214 233.234 130.577ZM258.38 112.528L257.74 112.376L257.087 112.223L256.646 112.122C253.613 111.434 250.268 110.828 247.26 111.124C246.163 111.232 245.273 111.767 245.118 112.763C244.987 113.603 245.614 114.688 246.68 114.837C250.212 115.332 253.829 115.172 257.377 115.682C259.144 115.936 260.898 116.252 262.658 116.536C263.997 116.752 265.38 116.828 266.73 117.003L266.42 117.041C266.311 117.054 266.338 117.212 266.445 117.206C266.89 117.167 267.336 117.161 267.782 117.188L267.974 117.202C268.265 117.237 268.437 116.936 268.177 116.783C266.532 115.816 265.136 114.767 263.295 114.054C261.701 113.437 260.062 112.929 258.38 112.528ZM230.771 111.044C228.439 109.001 223.481 109.786 220.707 110.721C219.123 111.255 217.618 111.929 216.364 112.939L216.242 113.038L216.054 113.195C215.207 113.913 214.263 114.901 214.398 115.937C214.418 116.095 214.517 116.275 214.723 116.307C215.834 116.477 216.925 115.969 217.951 115.664L218.631 115.462C219.651 115.16 220.678 114.872 221.73 114.665C223.038 114.407 224.373 114.257 225.716 114.272C227.073 114.288 228.531 114.62 229.824 114.153C231.266 113.632 232.014 112.134 230.771 111.044ZM253.807 127.523C254.402 128.05 255.188 128.347 256.193 128.17C256.979 128.032 258.475 127.347 259.671 126.292C260.488 125.571 261.172 124.669 261.358 123.625C261.401 123.382 261.55 123.227 261.745 123.129C261.899 123.051 262.102 123.012 262.323 123.032C262.511 123.048 262.71 123.107 262.864 123.185C263.157 123.334 263.277 123.545 263.301 123.703C263.536 125.223 262.859 126.732 261.802 128.004C260.377 129.721 258.283 130.979 257.053 131.274C254.947 131.778 252.729 131.377 251.093 130.106C249.785 129.091 249.114 127.767 248.492 126.407L248.372 126.143C248.232 125.834 248.093 125.528 247.946 125.224C247.651 124.617 247.746 124.092 248.032 123.682C248.348 123.229 248.933 122.909 249.584 122.811C250.185 122.721 250.829 122.82 251.337 123.138C251.767 123.407 252.113 123.834 252.236 124.464C252.436 125.489 252.9 126.665 253.718 127.441L253.807 127.523ZM217.701 121.59C218.192 121.368 218.576 121.302 219.12 121.443C219.421 121.521 219.719 121.671 219.951 121.873C220.182 122.073 220.349 122.322 220.413 122.598C220.573 123.279 221.003 123.917 221.615 124.333C222.139 124.688 222.8 124.876 223.533 124.77C224.324 124.655 225.078 124.216 225.597 123.697C225.742 123.552 225.86 123.391 225.975 123.229L226.044 123.131C226.299 122.765 226.548 122.424 226.901 122.156C227.035 122.053 227.236 121.982 227.431 121.982C227.511 121.982 227.591 121.994 227.668 122.014C228.455 122.699 228.607 123.219 228.581 123.735C228.555 124.275 228.309 124.823 227.911 125.333C226.979 126.531 225.21 127.513 224.016 127.736C222.38 128.04 220.756 127.675 219.454 126.883C218.114 126.068 217.121 124.803 216.812 123.378C216.737 123.035 216.769 122.664 216.92 122.343C217.067 122.029 217.324 121.76 217.701 121.59Z" fill="black"/>
</svg>
